G04 #@! TF.GenerationSoftware,KiCad,Pcbnew,(6.0.0-0)*
G04 #@! TF.CreationDate,2022-02-18T10:32:57-06:00*
G04 #@! TF.ProjectId,PhysarumV1,50687973-6172-4756-9d56-312e6b696361,rev?*
G04 #@! TF.SameCoordinates,Original*
G04 #@! TF.FileFunction,Legend,Top*
G04 #@! TF.FilePolarity,Positive*
%FSLAX46Y46*%
G04 Gerber Fmt 4.6, Leading zero omitted, Abs format (unit mm)*
G04 Created by KiCad (PCBNEW (6.0.0-0)) date 2022-02-18 10:32:57*
%MOMM*%
%LPD*%
G01*
G04 APERTURE LIST*
G04 Aperture macros list*
%AMRoundRect*
0 Rectangle with rounded corners*
0 $1 Rounding radius*
0 $2 $3 $4 $5 $6 $7 $8 $9 X,Y pos of 4 corners*
0 Add a 4 corners polygon primitive as box body*
4,1,4,$2,$3,$4,$5,$6,$7,$8,$9,$2,$3,0*
0 Add four circle primitives for the rounded corners*
1,1,$1+$1,$2,$3*
1,1,$1+$1,$4,$5*
1,1,$1+$1,$6,$7*
1,1,$1+$1,$8,$9*
0 Add four rect primitives between the rounded corners*
20,1,$1+$1,$2,$3,$4,$5,0*
20,1,$1+$1,$4,$5,$6,$7,0*
20,1,$1+$1,$6,$7,$8,$9,0*
20,1,$1+$1,$8,$9,$2,$3,0*%
%AMFreePoly0*
4,1,22,0.500000,-0.750000,0.000000,-0.750000,0.000000,-0.745033,-0.079941,-0.743568,-0.215256,-0.701293,-0.333266,-0.622738,-0.424486,-0.514219,-0.481581,-0.384460,-0.499164,-0.250000,-0.500000,-0.250000,-0.500000,0.250000,-0.499164,0.250000,-0.499963,0.256109,-0.478152,0.396186,-0.417904,0.524511,-0.324060,0.630769,-0.204165,0.706417,-0.067858,0.745374,0.000000,0.744959,0.000000,0.750000,
0.500000,0.750000,0.500000,-0.750000,0.500000,-0.750000,$1*%
%AMFreePoly1*
4,1,20,0.000000,0.744959,0.073905,0.744508,0.209726,0.703889,0.328688,0.626782,0.421226,0.519385,0.479903,0.390333,0.500000,0.250000,0.500000,-0.250000,0.499851,-0.262216,0.476331,-0.402017,0.414519,-0.529596,0.319384,-0.634700,0.198574,-0.708877,0.061801,-0.746166,0.000000,-0.745033,0.000000,-0.750000,-0.500000,-0.750000,-0.500000,0.750000,0.000000,0.750000,0.000000,0.744959,
0.000000,0.744959,$1*%
G04 Aperture macros list end*
%ADD10C,0.150000*%
%ADD11C,0.100000*%
%ADD12C,0.125000*%
%ADD13C,0.120000*%
%ADD14C,0.050000*%
%ADD15C,0.127000*%
%ADD16C,0.200000*%
%ADD17R,0.600000X3.300000*%
%ADD18C,1.000000*%
%ADD19RoundRect,0.250000X0.350000X0.450000X-0.350000X0.450000X-0.350000X-0.450000X0.350000X-0.450000X0*%
%ADD20R,1.700000X1.700000*%
%ADD21O,1.700000X1.700000*%
%ADD22R,1.600000X1.600000*%
%ADD23C,1.500000*%
%ADD24R,1.800000X2.500000*%
%ADD25RoundRect,0.250000X0.337500X0.475000X-0.337500X0.475000X-0.337500X-0.475000X0.337500X-0.475000X0*%
%ADD26R,1.700000X2.200000*%
%ADD27RoundRect,0.250000X-0.350000X-0.450000X0.350000X-0.450000X0.350000X0.450000X-0.350000X0.450000X0*%
%ADD28C,2.100000*%
%ADD29RoundRect,0.250000X-0.450000X0.350000X-0.450000X-0.350000X0.450000X-0.350000X0.450000X0.350000X0*%
%ADD30R,1.000000X1.500000*%
%ADD31FreePoly0,270.000000*%
%ADD32FreePoly1,270.000000*%
%ADD33R,0.254000X0.203200*%
%ADD34R,0.254000X0.558800*%
%ADD35R,0.500000X0.800000*%
%ADD36FreePoly0,90.000000*%
%ADD37FreePoly1,90.000000*%
%ADD38RoundRect,0.250000X-0.475000X0.337500X-0.475000X-0.337500X0.475000X-0.337500X0.475000X0.337500X0*%
%ADD39RoundRect,0.250000X0.450000X-0.350000X0.450000X0.350000X-0.450000X0.350000X-0.450000X-0.350000X0*%
%ADD40RoundRect,0.028800X-0.706200X-0.211200X0.706200X-0.211200X0.706200X0.211200X-0.706200X0.211200X0*%
%ADD41C,2.000000*%
G04 APERTURE END LIST*
D10*
X40259047Y-31321428D02*
X41020952Y-31321428D01*
X40306666Y-36282380D02*
X40925714Y-36282380D01*
X40592380Y-36663333D01*
X40735238Y-36663333D01*
X40830476Y-36710952D01*
X40878095Y-36758571D01*
X40925714Y-36853809D01*
X40925714Y-37091904D01*
X40878095Y-37187142D01*
X40830476Y-37234761D01*
X40735238Y-37282380D01*
X40449523Y-37282380D01*
X40354285Y-37234761D01*
X40306666Y-37187142D01*
X40878095Y-33742380D02*
X40401904Y-33742380D01*
X40354285Y-34218571D01*
X40401904Y-34170952D01*
X40497142Y-34123333D01*
X40735238Y-34123333D01*
X40830476Y-34170952D01*
X40878095Y-34218571D01*
X40925714Y-34313809D01*
X40925714Y-34551904D01*
X40878095Y-34647142D01*
X40830476Y-34694761D01*
X40735238Y-34742380D01*
X40497142Y-34742380D01*
X40401904Y-34694761D01*
X40354285Y-34647142D01*
D11*
X5588095Y-7512857D02*
X5588095Y-8012857D01*
X5588095Y-7536666D02*
X5635714Y-7512857D01*
X5730952Y-7512857D01*
X5778571Y-7536666D01*
X5802380Y-7560476D01*
X5826190Y-7608095D01*
X5826190Y-7750952D01*
X5802380Y-7798571D01*
X5778571Y-7822380D01*
X5730952Y-7846190D01*
X5635714Y-7846190D01*
X5588095Y-7822380D01*
X6040476Y-7846190D02*
X6040476Y-7346190D01*
X6254761Y-7846190D02*
X6254761Y-7584285D01*
X6230952Y-7536666D01*
X6183333Y-7512857D01*
X6111904Y-7512857D01*
X6064285Y-7536666D01*
X6040476Y-7560476D01*
X6445238Y-7512857D02*
X6564285Y-7846190D01*
X6683333Y-7512857D02*
X6564285Y-7846190D01*
X6516666Y-7965238D01*
X6492857Y-7989047D01*
X6445238Y-8012857D01*
X7135714Y-7846190D02*
X6850000Y-7846190D01*
X6992857Y-7846190D02*
X6992857Y-7346190D01*
X6945238Y-7417619D01*
X6897619Y-7465238D01*
X6850000Y-7489047D01*
X26380476Y-37746190D02*
X26213809Y-37508095D01*
X26094761Y-37746190D02*
X26094761Y-37246190D01*
X26285238Y-37246190D01*
X26332857Y-37270000D01*
X26356666Y-37293809D01*
X26380476Y-37341428D01*
X26380476Y-37412857D01*
X26356666Y-37460476D01*
X26332857Y-37484285D01*
X26285238Y-37508095D01*
X26094761Y-37508095D01*
X26523333Y-37246190D02*
X26809047Y-37246190D01*
X26666190Y-37746190D02*
X26666190Y-37246190D01*
X27261428Y-37698571D02*
X27237619Y-37722380D01*
X27166190Y-37746190D01*
X27118571Y-37746190D01*
X27047142Y-37722380D01*
X26999523Y-37674761D01*
X26975714Y-37627142D01*
X26951904Y-37531904D01*
X26951904Y-37460476D01*
X26975714Y-37365238D01*
X26999523Y-37317619D01*
X27047142Y-37270000D01*
X27118571Y-37246190D01*
X27166190Y-37246190D01*
X27237619Y-37270000D01*
X27261428Y-37293809D01*
X27356666Y-37793809D02*
X27737619Y-37793809D01*
X28023333Y-37484285D02*
X28094761Y-37508095D01*
X28118571Y-37531904D01*
X28142380Y-37579523D01*
X28142380Y-37650952D01*
X28118571Y-37698571D01*
X28094761Y-37722380D01*
X28047142Y-37746190D01*
X27856666Y-37746190D01*
X27856666Y-37246190D01*
X28023333Y-37246190D01*
X28070952Y-37270000D01*
X28094761Y-37293809D01*
X28118571Y-37341428D01*
X28118571Y-37389047D01*
X28094761Y-37436666D01*
X28070952Y-37460476D01*
X28023333Y-37484285D01*
X27856666Y-37484285D01*
X28332857Y-37603333D02*
X28570952Y-37603333D01*
X28285238Y-37746190D02*
X28451904Y-37246190D01*
X28618571Y-37746190D01*
X28713809Y-37246190D02*
X28999523Y-37246190D01*
X28856666Y-37746190D02*
X28856666Y-37246190D01*
X29094761Y-37246190D02*
X29380476Y-37246190D01*
X29237619Y-37746190D02*
X29237619Y-37246190D01*
X29809047Y-37746190D02*
X29523333Y-37746190D01*
X29666190Y-37746190D02*
X29666190Y-37246190D01*
X29618571Y-37317619D01*
X29570952Y-37365238D01*
X29523333Y-37389047D01*
X35199047Y-21773190D02*
X35484761Y-21773190D01*
X35341904Y-22273190D02*
X35341904Y-21773190D01*
X35651428Y-22273190D02*
X35651428Y-21773190D01*
X35841904Y-21773190D01*
X35889523Y-21797000D01*
X35913333Y-21820809D01*
X35937142Y-21868428D01*
X35937142Y-21939857D01*
X35913333Y-21987476D01*
X35889523Y-22011285D01*
X35841904Y-22035095D01*
X35651428Y-22035095D01*
X36389523Y-21773190D02*
X36151428Y-21773190D01*
X36127619Y-22011285D01*
X36151428Y-21987476D01*
X36199047Y-21963666D01*
X36318095Y-21963666D01*
X36365714Y-21987476D01*
X36389523Y-22011285D01*
X36413333Y-22058904D01*
X36413333Y-22177952D01*
X36389523Y-22225571D01*
X36365714Y-22249380D01*
X36318095Y-22273190D01*
X36199047Y-22273190D01*
X36151428Y-22249380D01*
X36127619Y-22225571D01*
X29761666Y-26896190D02*
X29595000Y-26658095D01*
X29475952Y-26896190D02*
X29475952Y-26396190D01*
X29666428Y-26396190D01*
X29714047Y-26420000D01*
X29737857Y-26443809D01*
X29761666Y-26491428D01*
X29761666Y-26562857D01*
X29737857Y-26610476D01*
X29714047Y-26634285D01*
X29666428Y-26658095D01*
X29475952Y-26658095D01*
X30214047Y-26396190D02*
X29975952Y-26396190D01*
X29952142Y-26634285D01*
X29975952Y-26610476D01*
X30023571Y-26586666D01*
X30142619Y-26586666D01*
X30190238Y-26610476D01*
X30214047Y-26634285D01*
X30237857Y-26681904D01*
X30237857Y-26800952D01*
X30214047Y-26848571D01*
X30190238Y-26872380D01*
X30142619Y-26896190D01*
X30023571Y-26896190D01*
X29975952Y-26872380D01*
X29952142Y-26848571D01*
X42025238Y-7846190D02*
X42025238Y-7346190D01*
X42191904Y-7703333D01*
X42358571Y-7346190D01*
X42358571Y-7846190D01*
X42668095Y-7846190D02*
X42620476Y-7822380D01*
X42596666Y-7798571D01*
X42572857Y-7750952D01*
X42572857Y-7608095D01*
X42596666Y-7560476D01*
X42620476Y-7536666D01*
X42668095Y-7512857D01*
X42739523Y-7512857D01*
X42787142Y-7536666D01*
X42810952Y-7560476D01*
X42834761Y-7608095D01*
X42834761Y-7750952D01*
X42810952Y-7798571D01*
X42787142Y-7822380D01*
X42739523Y-7846190D01*
X42668095Y-7846190D01*
X42977619Y-7512857D02*
X43168095Y-7512857D01*
X43049047Y-7346190D02*
X43049047Y-7774761D01*
X43072857Y-7822380D01*
X43120476Y-7846190D01*
X43168095Y-7846190D01*
X43406190Y-7846190D02*
X43358571Y-7822380D01*
X43334761Y-7798571D01*
X43310952Y-7750952D01*
X43310952Y-7608095D01*
X43334761Y-7560476D01*
X43358571Y-7536666D01*
X43406190Y-7512857D01*
X43477619Y-7512857D01*
X43525238Y-7536666D01*
X43549047Y-7560476D01*
X43572857Y-7608095D01*
X43572857Y-7750952D01*
X43549047Y-7798571D01*
X43525238Y-7822380D01*
X43477619Y-7846190D01*
X43406190Y-7846190D01*
X43787142Y-7846190D02*
X43787142Y-7512857D01*
X43787142Y-7608095D02*
X43810952Y-7560476D01*
X43834761Y-7536666D01*
X43882380Y-7512857D01*
X43930000Y-7512857D01*
X44358571Y-7846190D02*
X44072857Y-7846190D01*
X44215714Y-7846190D02*
X44215714Y-7346190D01*
X44168095Y-7417619D01*
X44120476Y-7465238D01*
X44072857Y-7489047D01*
X29821428Y-37032380D02*
X29892857Y-37056190D01*
X30011904Y-37056190D01*
X30059523Y-37032380D01*
X30083333Y-37008571D01*
X30107142Y-36960952D01*
X30107142Y-36913333D01*
X30083333Y-36865714D01*
X30059523Y-36841904D01*
X30011904Y-36818095D01*
X29916666Y-36794285D01*
X29869047Y-36770476D01*
X29845238Y-36746666D01*
X29821428Y-36699047D01*
X29821428Y-36651428D01*
X29845238Y-36603809D01*
X29869047Y-36580000D01*
X29916666Y-36556190D01*
X30035714Y-36556190D01*
X30107142Y-36580000D01*
X30273809Y-36556190D02*
X30392857Y-37056190D01*
X30488095Y-36699047D01*
X30583333Y-37056190D01*
X30702380Y-36556190D01*
X30892857Y-37056190D02*
X30892857Y-36556190D01*
X31059523Y-36556190D02*
X31345238Y-36556190D01*
X31202380Y-37056190D02*
X31202380Y-36556190D01*
X31797619Y-37008571D02*
X31773809Y-37032380D01*
X31702380Y-37056190D01*
X31654761Y-37056190D01*
X31583333Y-37032380D01*
X31535714Y-36984761D01*
X31511904Y-36937142D01*
X31488095Y-36841904D01*
X31488095Y-36770476D01*
X31511904Y-36675238D01*
X31535714Y-36627619D01*
X31583333Y-36580000D01*
X31654761Y-36556190D01*
X31702380Y-36556190D01*
X31773809Y-36580000D01*
X31797619Y-36603809D01*
X32011904Y-37056190D02*
X32011904Y-36556190D01*
X32011904Y-36794285D02*
X32297619Y-36794285D01*
X32297619Y-37056190D02*
X32297619Y-36556190D01*
X32416666Y-37103809D02*
X32797619Y-37103809D01*
X33202380Y-37056190D02*
X33035714Y-36818095D01*
X32916666Y-37056190D02*
X32916666Y-36556190D01*
X33107142Y-36556190D01*
X33154761Y-36580000D01*
X33178571Y-36603809D01*
X33202380Y-36651428D01*
X33202380Y-36722857D01*
X33178571Y-36770476D01*
X33154761Y-36794285D01*
X33107142Y-36818095D01*
X32916666Y-36818095D01*
X33678571Y-37056190D02*
X33392857Y-37056190D01*
X33535714Y-37056190D02*
X33535714Y-36556190D01*
X33488095Y-36627619D01*
X33440476Y-36675238D01*
X33392857Y-36699047D01*
X13273333Y-38172380D02*
X13344761Y-38196190D01*
X13463809Y-38196190D01*
X13511428Y-38172380D01*
X13535238Y-38148571D01*
X13559047Y-38100952D01*
X13559047Y-38053333D01*
X13535238Y-38005714D01*
X13511428Y-37981904D01*
X13463809Y-37958095D01*
X13368571Y-37934285D01*
X13320952Y-37910476D01*
X13297142Y-37886666D01*
X13273333Y-37839047D01*
X13273333Y-37791428D01*
X13297142Y-37743809D01*
X13320952Y-37720000D01*
X13368571Y-37696190D01*
X13487619Y-37696190D01*
X13559047Y-37720000D01*
X13725714Y-37696190D02*
X13844761Y-38196190D01*
X13940000Y-37839047D01*
X14035238Y-38196190D01*
X14154285Y-37696190D01*
X14320952Y-37743809D02*
X14344761Y-37720000D01*
X14392380Y-37696190D01*
X14511428Y-37696190D01*
X14559047Y-37720000D01*
X14582857Y-37743809D01*
X14606666Y-37791428D01*
X14606666Y-37839047D01*
X14582857Y-37910476D01*
X14297142Y-38196190D01*
X14606666Y-38196190D01*
X30396666Y-32663571D02*
X30372857Y-32687380D01*
X30301428Y-32711190D01*
X30253809Y-32711190D01*
X30182380Y-32687380D01*
X30134761Y-32639761D01*
X30110952Y-32592142D01*
X30087142Y-32496904D01*
X30087142Y-32425476D01*
X30110952Y-32330238D01*
X30134761Y-32282619D01*
X30182380Y-32235000D01*
X30253809Y-32211190D01*
X30301428Y-32211190D01*
X30372857Y-32235000D01*
X30396666Y-32258809D01*
X30872857Y-32711190D02*
X30587142Y-32711190D01*
X30730000Y-32711190D02*
X30730000Y-32211190D01*
X30682380Y-32282619D01*
X30634761Y-32330238D01*
X30587142Y-32354047D01*
X718571Y-15706190D02*
X718571Y-16063333D01*
X694761Y-16134761D01*
X647142Y-16182380D01*
X575714Y-16206190D01*
X528095Y-16206190D01*
X932857Y-15753809D02*
X956666Y-15730000D01*
X1004285Y-15706190D01*
X1123333Y-15706190D01*
X1170952Y-15730000D01*
X1194761Y-15753809D01*
X1218571Y-15801428D01*
X1218571Y-15849047D01*
X1194761Y-15920476D01*
X909047Y-16206190D01*
X1218571Y-16206190D01*
X1313809Y-16253809D02*
X1694761Y-16253809D01*
X1766190Y-15706190D02*
X2099523Y-16206190D01*
X2099523Y-15706190D02*
X1766190Y-16206190D01*
X2290000Y-16206190D02*
X2290000Y-15706190D01*
X2504285Y-16063333D02*
X2742380Y-16063333D01*
X2456666Y-16206190D02*
X2623333Y-15706190D01*
X2790000Y-16206190D01*
X3051904Y-15706190D02*
X3147142Y-15706190D01*
X3194761Y-15730000D01*
X3242380Y-15777619D01*
X3266190Y-15872857D01*
X3266190Y-16039523D01*
X3242380Y-16134761D01*
X3194761Y-16182380D01*
X3147142Y-16206190D01*
X3051904Y-16206190D01*
X3004285Y-16182380D01*
X2956666Y-16134761D01*
X2932857Y-16039523D01*
X2932857Y-15872857D01*
X2956666Y-15777619D01*
X3004285Y-15730000D01*
X3051904Y-15706190D01*
X3361428Y-16253809D02*
X3742380Y-16253809D01*
X4099523Y-16206190D02*
X3861428Y-16206190D01*
X3861428Y-15706190D01*
X4528095Y-16206190D02*
X4242380Y-16206190D01*
X4385238Y-16206190D02*
X4385238Y-15706190D01*
X4337619Y-15777619D01*
X4290000Y-15825238D01*
X4242380Y-15849047D01*
X32936666Y-28166190D02*
X32770000Y-27928095D01*
X32650952Y-28166190D02*
X32650952Y-27666190D01*
X32841428Y-27666190D01*
X32889047Y-27690000D01*
X32912857Y-27713809D01*
X32936666Y-27761428D01*
X32936666Y-27832857D01*
X32912857Y-27880476D01*
X32889047Y-27904285D01*
X32841428Y-27928095D01*
X32650952Y-27928095D01*
X33103333Y-27666190D02*
X33436666Y-27666190D01*
X33222380Y-28166190D01*
X37449285Y-37056190D02*
X37449285Y-36556190D01*
X37639761Y-36556190D01*
X37687380Y-36580000D01*
X37711190Y-36603809D01*
X37735000Y-36651428D01*
X37735000Y-36722857D01*
X37711190Y-36770476D01*
X37687380Y-36794285D01*
X37639761Y-36818095D01*
X37449285Y-36818095D01*
X37949285Y-37056190D02*
X37949285Y-36556190D01*
X37949285Y-36794285D02*
X38235000Y-36794285D01*
X38235000Y-37056190D02*
X38235000Y-36556190D01*
X38568333Y-36818095D02*
X38568333Y-37056190D01*
X38401666Y-36556190D02*
X38568333Y-36818095D01*
X38735000Y-36556190D01*
X38782619Y-37103809D02*
X39163571Y-37103809D01*
X39568333Y-37056190D02*
X39401666Y-36818095D01*
X39282619Y-37056190D02*
X39282619Y-36556190D01*
X39473095Y-36556190D01*
X39520714Y-36580000D01*
X39544523Y-36603809D01*
X39568333Y-36651428D01*
X39568333Y-36722857D01*
X39544523Y-36770476D01*
X39520714Y-36794285D01*
X39473095Y-36818095D01*
X39282619Y-36818095D01*
X40044523Y-37056190D02*
X39758809Y-37056190D01*
X39901666Y-37056190D02*
X39901666Y-36556190D01*
X39854047Y-36627619D01*
X39806428Y-36675238D01*
X39758809Y-36699047D01*
X11981666Y-32611190D02*
X11815000Y-32373095D01*
X11695952Y-32611190D02*
X11695952Y-32111190D01*
X11886428Y-32111190D01*
X11934047Y-32135000D01*
X11957857Y-32158809D01*
X11981666Y-32206428D01*
X11981666Y-32277857D01*
X11957857Y-32325476D01*
X11934047Y-32349285D01*
X11886428Y-32373095D01*
X11695952Y-32373095D01*
X12457857Y-32611190D02*
X12172142Y-32611190D01*
X12315000Y-32611190D02*
X12315000Y-32111190D01*
X12267380Y-32182619D01*
X12219761Y-32230238D01*
X12172142Y-32254047D01*
X30483333Y-38162380D02*
X30554761Y-38186190D01*
X30673809Y-38186190D01*
X30721428Y-38162380D01*
X30745238Y-38138571D01*
X30769047Y-38090952D01*
X30769047Y-38043333D01*
X30745238Y-37995714D01*
X30721428Y-37971904D01*
X30673809Y-37948095D01*
X30578571Y-37924285D01*
X30530952Y-37900476D01*
X30507142Y-37876666D01*
X30483333Y-37829047D01*
X30483333Y-37781428D01*
X30507142Y-37733809D01*
X30530952Y-37710000D01*
X30578571Y-37686190D01*
X30697619Y-37686190D01*
X30769047Y-37710000D01*
X30935714Y-37686190D02*
X31054761Y-38186190D01*
X31150000Y-37829047D01*
X31245238Y-38186190D01*
X31364285Y-37686190D01*
X31816666Y-38186190D02*
X31530952Y-38186190D01*
X31673809Y-38186190D02*
X31673809Y-37686190D01*
X31626190Y-37757619D01*
X31578571Y-37805238D01*
X31530952Y-37829047D01*
X36428333Y-17611190D02*
X36428333Y-17968333D01*
X36404523Y-18039761D01*
X36356904Y-18087380D01*
X36285476Y-18111190D01*
X36237857Y-18111190D01*
X36666428Y-18111190D02*
X36666428Y-17611190D01*
X36856904Y-17611190D01*
X36904523Y-17635000D01*
X36928333Y-17658809D01*
X36952142Y-17706428D01*
X36952142Y-17777857D01*
X36928333Y-17825476D01*
X36904523Y-17849285D01*
X36856904Y-17873095D01*
X36666428Y-17873095D01*
X37142619Y-17658809D02*
X37166428Y-17635000D01*
X37214047Y-17611190D01*
X37333095Y-17611190D01*
X37380714Y-17635000D01*
X37404523Y-17658809D01*
X37428333Y-17706428D01*
X37428333Y-17754047D01*
X37404523Y-17825476D01*
X37118809Y-18111190D01*
X37428333Y-18111190D01*
X670952Y-27136190D02*
X670952Y-27493333D01*
X647142Y-27564761D01*
X599523Y-27612380D01*
X528095Y-27636190D01*
X480476Y-27636190D01*
X861428Y-27136190D02*
X1170952Y-27136190D01*
X1004285Y-27326666D01*
X1075714Y-27326666D01*
X1123333Y-27350476D01*
X1147142Y-27374285D01*
X1170952Y-27421904D01*
X1170952Y-27540952D01*
X1147142Y-27588571D01*
X1123333Y-27612380D01*
X1075714Y-27636190D01*
X932857Y-27636190D01*
X885238Y-27612380D01*
X861428Y-27588571D01*
X1266190Y-27683809D02*
X1647142Y-27683809D01*
X1718571Y-27136190D02*
X2051904Y-27636190D01*
X2051904Y-27136190D02*
X1718571Y-27636190D01*
X2242380Y-27636190D02*
X2242380Y-27136190D01*
X2456666Y-27493333D02*
X2694761Y-27493333D01*
X2409047Y-27636190D02*
X2575714Y-27136190D01*
X2742380Y-27636190D01*
X3004285Y-27136190D02*
X3099523Y-27136190D01*
X3147142Y-27160000D01*
X3194761Y-27207619D01*
X3218571Y-27302857D01*
X3218571Y-27469523D01*
X3194761Y-27564761D01*
X3147142Y-27612380D01*
X3099523Y-27636190D01*
X3004285Y-27636190D01*
X2956666Y-27612380D01*
X2909047Y-27564761D01*
X2885238Y-27469523D01*
X2885238Y-27302857D01*
X2909047Y-27207619D01*
X2956666Y-27160000D01*
X3004285Y-27136190D01*
X3313809Y-27683809D02*
X3694761Y-27683809D01*
X4099523Y-27636190D02*
X3932857Y-27398095D01*
X3813809Y-27636190D02*
X3813809Y-27136190D01*
X4004285Y-27136190D01*
X4051904Y-27160000D01*
X4075714Y-27183809D01*
X4099523Y-27231428D01*
X4099523Y-27302857D01*
X4075714Y-27350476D01*
X4051904Y-27374285D01*
X4004285Y-27398095D01*
X3813809Y-27398095D01*
X4575714Y-27636190D02*
X4290000Y-27636190D01*
X4432857Y-27636190D02*
X4432857Y-27136190D01*
X4385238Y-27207619D01*
X4337619Y-27255238D01*
X4290000Y-27279047D01*
X5298333Y-36556190D02*
X5298333Y-36913333D01*
X5274523Y-36984761D01*
X5226904Y-37032380D01*
X5155476Y-37056190D01*
X5107857Y-37056190D01*
X5536428Y-37056190D02*
X5536428Y-36556190D01*
X5726904Y-36556190D01*
X5774523Y-36580000D01*
X5798333Y-36603809D01*
X5822142Y-36651428D01*
X5822142Y-36722857D01*
X5798333Y-36770476D01*
X5774523Y-36794285D01*
X5726904Y-36818095D01*
X5536428Y-36818095D01*
X5988809Y-36556190D02*
X6298333Y-36556190D01*
X6131666Y-36746666D01*
X6203095Y-36746666D01*
X6250714Y-36770476D01*
X6274523Y-36794285D01*
X6298333Y-36841904D01*
X6298333Y-36960952D01*
X6274523Y-37008571D01*
X6250714Y-37032380D01*
X6203095Y-37056190D01*
X6060238Y-37056190D01*
X6012619Y-37032380D01*
X5988809Y-37008571D01*
X37654285Y-9565190D02*
X37654285Y-9065190D01*
X37820952Y-9422333D01*
X37987619Y-9065190D01*
X37987619Y-9565190D01*
X38320952Y-9065190D02*
X38416190Y-9065190D01*
X38463809Y-9089000D01*
X38511428Y-9136619D01*
X38535238Y-9231857D01*
X38535238Y-9398523D01*
X38511428Y-9493761D01*
X38463809Y-9541380D01*
X38416190Y-9565190D01*
X38320952Y-9565190D01*
X38273333Y-9541380D01*
X38225714Y-9493761D01*
X38201904Y-9398523D01*
X38201904Y-9231857D01*
X38225714Y-9136619D01*
X38273333Y-9089000D01*
X38320952Y-9065190D01*
X38725714Y-9541380D02*
X38797142Y-9565190D01*
X38916190Y-9565190D01*
X38963809Y-9541380D01*
X38987619Y-9517571D01*
X39011428Y-9469952D01*
X39011428Y-9422333D01*
X38987619Y-9374714D01*
X38963809Y-9350904D01*
X38916190Y-9327095D01*
X38820952Y-9303285D01*
X38773333Y-9279476D01*
X38749523Y-9255666D01*
X38725714Y-9208047D01*
X38725714Y-9160428D01*
X38749523Y-9112809D01*
X38773333Y-9089000D01*
X38820952Y-9065190D01*
X38940000Y-9065190D01*
X39011428Y-9089000D01*
X39392380Y-9303285D02*
X39225714Y-9303285D01*
X39225714Y-9565190D02*
X39225714Y-9065190D01*
X39463809Y-9065190D01*
X39654285Y-9303285D02*
X39820952Y-9303285D01*
X39892380Y-9565190D02*
X39654285Y-9565190D01*
X39654285Y-9065190D01*
X39892380Y-9065190D01*
X40035238Y-9065190D02*
X40320952Y-9065190D01*
X40178095Y-9565190D02*
X40178095Y-9065190D01*
X40749523Y-9565190D02*
X40463809Y-9565190D01*
X40606666Y-9565190D02*
X40606666Y-9065190D01*
X40559047Y-9136619D01*
X40511428Y-9184238D01*
X40463809Y-9208047D01*
X37390447Y-25761190D02*
X37390447Y-26165952D01*
X37414257Y-26213571D01*
X37438066Y-26237380D01*
X37485685Y-26261190D01*
X37580923Y-26261190D01*
X37628542Y-26237380D01*
X37652352Y-26213571D01*
X37676161Y-26165952D01*
X37676161Y-25761190D01*
X38176161Y-26261190D02*
X37890447Y-26261190D01*
X38033304Y-26261190D02*
X38033304Y-25761190D01*
X37985685Y-25832619D01*
X37938066Y-25880238D01*
X37890447Y-25904047D01*
D12*
X41175952Y-15371190D02*
X41009285Y-15133095D01*
X40890238Y-15371190D02*
X40890238Y-14871190D01*
X41080714Y-14871190D01*
X41128333Y-14895000D01*
X41152142Y-14918809D01*
X41175952Y-14966428D01*
X41175952Y-15037857D01*
X41152142Y-15085476D01*
X41128333Y-15109285D01*
X41080714Y-15133095D01*
X40890238Y-15133095D01*
X41318809Y-14871190D02*
X41604523Y-14871190D01*
X41461666Y-15371190D02*
X41461666Y-14871190D01*
X42056904Y-15323571D02*
X42033095Y-15347380D01*
X41961666Y-15371190D01*
X41914047Y-15371190D01*
X41842619Y-15347380D01*
X41795000Y-15299761D01*
X41771190Y-15252142D01*
X41747380Y-15156904D01*
X41747380Y-15085476D01*
X41771190Y-14990238D01*
X41795000Y-14942619D01*
X41842619Y-14895000D01*
X41914047Y-14871190D01*
X41961666Y-14871190D01*
X42033095Y-14895000D01*
X42056904Y-14918809D01*
X42152142Y-15418809D02*
X42533095Y-15418809D01*
X42652142Y-15109285D02*
X42818809Y-15109285D01*
X42890238Y-15371190D02*
X42652142Y-15371190D01*
X42652142Y-14871190D01*
X42890238Y-14871190D01*
X43056904Y-14871190D02*
X43390238Y-15371190D01*
X43390238Y-14871190D02*
X43056904Y-15371190D01*
X43509285Y-14871190D02*
X43795000Y-14871190D01*
X43652142Y-15371190D02*
X43652142Y-14871190D01*
X44223571Y-15371190D02*
X43937857Y-15371190D01*
X44080714Y-15371190D02*
X44080714Y-14871190D01*
X44033095Y-14942619D01*
X43985476Y-14990238D01*
X43937857Y-15014047D01*
D11*
X37739047Y-21773190D02*
X38024761Y-21773190D01*
X37881904Y-22273190D02*
X37881904Y-21773190D01*
X38191428Y-22273190D02*
X38191428Y-21773190D01*
X38381904Y-21773190D01*
X38429523Y-21797000D01*
X38453333Y-21820809D01*
X38477142Y-21868428D01*
X38477142Y-21939857D01*
X38453333Y-21987476D01*
X38429523Y-22011285D01*
X38381904Y-22035095D01*
X38191428Y-22035095D01*
X38905714Y-21939857D02*
X38905714Y-22273190D01*
X38786666Y-21749380D02*
X38667619Y-22106523D01*
X38977142Y-22106523D01*
X28793333Y-31476190D02*
X28793333Y-31833333D01*
X28769523Y-31904761D01*
X28721904Y-31952380D01*
X28650476Y-31976190D01*
X28602857Y-31976190D01*
X29031428Y-31976190D02*
X29031428Y-31476190D01*
X29221904Y-31476190D01*
X29269523Y-31500000D01*
X29293333Y-31523809D01*
X29317142Y-31571428D01*
X29317142Y-31642857D01*
X29293333Y-31690476D01*
X29269523Y-31714285D01*
X29221904Y-31738095D01*
X29031428Y-31738095D01*
X29745714Y-31642857D02*
X29745714Y-31976190D01*
X29626666Y-31452380D02*
X29507619Y-31809523D01*
X29817142Y-31809523D01*
X29761666Y-24356190D02*
X29595000Y-24118095D01*
X29475952Y-24356190D02*
X29475952Y-23856190D01*
X29666428Y-23856190D01*
X29714047Y-23880000D01*
X29737857Y-23903809D01*
X29761666Y-23951428D01*
X29761666Y-24022857D01*
X29737857Y-24070476D01*
X29714047Y-24094285D01*
X29666428Y-24118095D01*
X29475952Y-24118095D01*
X30190238Y-23856190D02*
X30095000Y-23856190D01*
X30047380Y-23880000D01*
X30023571Y-23903809D01*
X29975952Y-23975238D01*
X29952142Y-24070476D01*
X29952142Y-24260952D01*
X29975952Y-24308571D01*
X29999761Y-24332380D01*
X30047380Y-24356190D01*
X30142619Y-24356190D01*
X30190238Y-24332380D01*
X30214047Y-24308571D01*
X30237857Y-24260952D01*
X30237857Y-24141904D01*
X30214047Y-24094285D01*
X30190238Y-24070476D01*
X30142619Y-24046666D01*
X30047380Y-24046666D01*
X29999761Y-24070476D01*
X29975952Y-24094285D01*
X29952142Y-24141904D01*
X25951666Y-26213571D02*
X25927857Y-26237380D01*
X25856428Y-26261190D01*
X25808809Y-26261190D01*
X25737380Y-26237380D01*
X25689761Y-26189761D01*
X25665952Y-26142142D01*
X25642142Y-26046904D01*
X25642142Y-25975476D01*
X25665952Y-25880238D01*
X25689761Y-25832619D01*
X25737380Y-25785000D01*
X25808809Y-25761190D01*
X25856428Y-25761190D01*
X25927857Y-25785000D01*
X25951666Y-25808809D01*
X26142142Y-25808809D02*
X26165952Y-25785000D01*
X26213571Y-25761190D01*
X26332619Y-25761190D01*
X26380238Y-25785000D01*
X26404047Y-25808809D01*
X26427857Y-25856428D01*
X26427857Y-25904047D01*
X26404047Y-25975476D01*
X26118333Y-26261190D01*
X26427857Y-26261190D01*
X7651904Y-37056190D02*
X7651904Y-36556190D01*
X7842380Y-36556190D01*
X7890000Y-36580000D01*
X7913809Y-36603809D01*
X7937619Y-36651428D01*
X7937619Y-36722857D01*
X7913809Y-36770476D01*
X7890000Y-36794285D01*
X7842380Y-36818095D01*
X7651904Y-36818095D01*
X8151904Y-37056190D02*
X8151904Y-36556190D01*
X8151904Y-36794285D02*
X8437619Y-36794285D01*
X8437619Y-37056190D02*
X8437619Y-36556190D01*
X8770952Y-36818095D02*
X8770952Y-37056190D01*
X8604285Y-36556190D02*
X8770952Y-36818095D01*
X8937619Y-36556190D01*
X8985238Y-37103809D02*
X9366190Y-37103809D01*
X9723333Y-37056190D02*
X9485238Y-37056190D01*
X9485238Y-36556190D01*
X10151904Y-37056190D02*
X9866190Y-37056190D01*
X10009047Y-37056190D02*
X10009047Y-36556190D01*
X9961428Y-36627619D01*
X9913809Y-36675238D01*
X9866190Y-36699047D01*
X39921666Y-25626190D02*
X39755000Y-25388095D01*
X39635952Y-25626190D02*
X39635952Y-25126190D01*
X39826428Y-25126190D01*
X39874047Y-25150000D01*
X39897857Y-25173809D01*
X39921666Y-25221428D01*
X39921666Y-25292857D01*
X39897857Y-25340476D01*
X39874047Y-25364285D01*
X39826428Y-25388095D01*
X39635952Y-25388095D01*
X40088333Y-25126190D02*
X40397857Y-25126190D01*
X40231190Y-25316666D01*
X40302619Y-25316666D01*
X40350238Y-25340476D01*
X40374047Y-25364285D01*
X40397857Y-25411904D01*
X40397857Y-25530952D01*
X40374047Y-25578571D01*
X40350238Y-25602380D01*
X40302619Y-25626190D01*
X40159761Y-25626190D01*
X40112142Y-25602380D01*
X40088333Y-25578571D01*
X34841666Y-37691190D02*
X34675000Y-37453095D01*
X34555952Y-37691190D02*
X34555952Y-37191190D01*
X34746428Y-37191190D01*
X34794047Y-37215000D01*
X34817857Y-37238809D01*
X34841666Y-37286428D01*
X34841666Y-37357857D01*
X34817857Y-37405476D01*
X34794047Y-37429285D01*
X34746428Y-37453095D01*
X34555952Y-37453095D01*
X35032142Y-37238809D02*
X35055952Y-37215000D01*
X35103571Y-37191190D01*
X35222619Y-37191190D01*
X35270238Y-37215000D01*
X35294047Y-37238809D01*
X35317857Y-37286428D01*
X35317857Y-37334047D01*
X35294047Y-37405476D01*
X35008333Y-37691190D01*
X35317857Y-37691190D01*
X1294047Y-40842380D02*
X1365476Y-40866190D01*
X1484523Y-40866190D01*
X1532142Y-40842380D01*
X1555952Y-40818571D01*
X1579761Y-40770952D01*
X1579761Y-40723333D01*
X1555952Y-40675714D01*
X1532142Y-40651904D01*
X1484523Y-40628095D01*
X1389285Y-40604285D01*
X1341666Y-40580476D01*
X1317857Y-40556666D01*
X1294047Y-40509047D01*
X1294047Y-40461428D01*
X1317857Y-40413809D01*
X1341666Y-40390000D01*
X1389285Y-40366190D01*
X1508333Y-40366190D01*
X1579761Y-40390000D01*
X1746428Y-40366190D02*
X1865476Y-40866190D01*
X1960714Y-40509047D01*
X2055952Y-40866190D01*
X2175000Y-40366190D01*
X2365476Y-40866190D02*
X2365476Y-40366190D01*
X2532142Y-40366190D02*
X2817857Y-40366190D01*
X2675000Y-40866190D02*
X2675000Y-40366190D01*
X3270238Y-40818571D02*
X3246428Y-40842380D01*
X3175000Y-40866190D01*
X3127380Y-40866190D01*
X3055952Y-40842380D01*
X3008333Y-40794761D01*
X2984523Y-40747142D01*
X2960714Y-40651904D01*
X2960714Y-40580476D01*
X2984523Y-40485238D01*
X3008333Y-40437619D01*
X3055952Y-40390000D01*
X3127380Y-40366190D01*
X3175000Y-40366190D01*
X3246428Y-40390000D01*
X3270238Y-40413809D01*
X3484523Y-40866190D02*
X3484523Y-40366190D01*
X3484523Y-40604285D02*
X3770238Y-40604285D01*
X3770238Y-40866190D02*
X3770238Y-40366190D01*
X3889285Y-40913809D02*
X4270238Y-40913809D01*
X4627380Y-40866190D02*
X4389285Y-40866190D01*
X4389285Y-40366190D01*
X5055952Y-40866190D02*
X4770238Y-40866190D01*
X4913095Y-40866190D02*
X4913095Y-40366190D01*
X4865476Y-40437619D01*
X4817857Y-40485238D01*
X4770238Y-40509047D01*
X13152619Y-6711190D02*
X13152619Y-7068333D01*
X13128809Y-7139761D01*
X13081190Y-7187380D01*
X13009761Y-7211190D01*
X12962142Y-7211190D01*
X13652619Y-7211190D02*
X13366904Y-7211190D01*
X13509761Y-7211190D02*
X13509761Y-6711190D01*
X13462142Y-6782619D01*
X13414523Y-6830238D01*
X13366904Y-6854047D01*
X13747857Y-7258809D02*
X14128809Y-7258809D01*
X14247857Y-7211190D02*
X14247857Y-6711190D01*
X14366904Y-6711190D01*
X14438333Y-6735000D01*
X14485952Y-6782619D01*
X14509761Y-6830238D01*
X14533571Y-6925476D01*
X14533571Y-6996904D01*
X14509761Y-7092142D01*
X14485952Y-7139761D01*
X14438333Y-7187380D01*
X14366904Y-7211190D01*
X14247857Y-7211190D01*
X14747857Y-7211190D02*
X14747857Y-6711190D01*
X14962142Y-7187380D02*
X15033571Y-7211190D01*
X15152619Y-7211190D01*
X15200238Y-7187380D01*
X15224047Y-7163571D01*
X15247857Y-7115952D01*
X15247857Y-7068333D01*
X15224047Y-7020714D01*
X15200238Y-6996904D01*
X15152619Y-6973095D01*
X15057380Y-6949285D01*
X15009761Y-6925476D01*
X14985952Y-6901666D01*
X14962142Y-6854047D01*
X14962142Y-6806428D01*
X14985952Y-6758809D01*
X15009761Y-6735000D01*
X15057380Y-6711190D01*
X15176428Y-6711190D01*
X15247857Y-6735000D01*
X15462142Y-7211190D02*
X15462142Y-6711190D01*
X15652619Y-6711190D01*
X15700238Y-6735000D01*
X15724047Y-6758809D01*
X15747857Y-6806428D01*
X15747857Y-6877857D01*
X15724047Y-6925476D01*
X15700238Y-6949285D01*
X15652619Y-6973095D01*
X15462142Y-6973095D01*
X16224047Y-7211190D02*
X15938333Y-7211190D01*
X16081190Y-7211190D02*
X16081190Y-6711190D01*
X16033571Y-6782619D01*
X15985952Y-6830238D01*
X15938333Y-6854047D01*
X36746666Y-28801190D02*
X36580000Y-28563095D01*
X36460952Y-28801190D02*
X36460952Y-28301190D01*
X36651428Y-28301190D01*
X36699047Y-28325000D01*
X36722857Y-28348809D01*
X36746666Y-28396428D01*
X36746666Y-28467857D01*
X36722857Y-28515476D01*
X36699047Y-28539285D01*
X36651428Y-28563095D01*
X36460952Y-28563095D01*
X37175238Y-28467857D02*
X37175238Y-28801190D01*
X37056190Y-28277380D02*
X36937142Y-28634523D01*
X37246666Y-28634523D01*
D10*
X41965714Y-39073571D02*
X42108571Y-39121190D01*
X42156190Y-39168809D01*
X42203809Y-39264047D01*
X42203809Y-39406904D01*
X42156190Y-39502142D01*
X42108571Y-39549761D01*
X42013333Y-39597380D01*
X41632380Y-39597380D01*
X41632380Y-38597380D01*
X41965714Y-38597380D01*
X42060952Y-38645000D01*
X42108571Y-38692619D01*
X42156190Y-38787857D01*
X42156190Y-38883095D01*
X42108571Y-38978333D01*
X42060952Y-39025952D01*
X41965714Y-39073571D01*
X41632380Y-39073571D01*
X42584761Y-39311666D02*
X43060952Y-39311666D01*
X42489523Y-39597380D02*
X42822857Y-38597380D01*
X43156190Y-39597380D01*
X43346666Y-38597380D02*
X43918095Y-38597380D01*
X43632380Y-39597380D02*
X43632380Y-38597380D01*
X44775238Y-39597380D02*
X44203809Y-39597380D01*
X44489523Y-39597380D02*
X44489523Y-38597380D01*
X44394285Y-38740238D01*
X44299047Y-38835476D01*
X44203809Y-38883095D01*
D11*
X37469047Y-15601190D02*
X37754761Y-15601190D01*
X37611904Y-16101190D02*
X37611904Y-15601190D01*
X37921428Y-16101190D02*
X37921428Y-15601190D01*
X38111904Y-15601190D01*
X38159523Y-15625000D01*
X38183333Y-15648809D01*
X38207142Y-15696428D01*
X38207142Y-15767857D01*
X38183333Y-15815476D01*
X38159523Y-15839285D01*
X38111904Y-15863095D01*
X37921428Y-15863095D01*
X38397619Y-15648809D02*
X38421428Y-15625000D01*
X38469047Y-15601190D01*
X38588095Y-15601190D01*
X38635714Y-15625000D01*
X38659523Y-15648809D01*
X38683333Y-15696428D01*
X38683333Y-15744047D01*
X38659523Y-15815476D01*
X38373809Y-16101190D01*
X38683333Y-16101190D01*
X28829047Y-12426190D02*
X28829047Y-12830952D01*
X28852857Y-12878571D01*
X28876666Y-12902380D01*
X28924285Y-12926190D01*
X29019523Y-12926190D01*
X29067142Y-12902380D01*
X29090952Y-12878571D01*
X29114761Y-12830952D01*
X29114761Y-12426190D01*
X29329047Y-12473809D02*
X29352857Y-12450000D01*
X29400476Y-12426190D01*
X29519523Y-12426190D01*
X29567142Y-12450000D01*
X29590952Y-12473809D01*
X29614761Y-12521428D01*
X29614761Y-12569047D01*
X29590952Y-12640476D01*
X29305238Y-12926190D01*
X29614761Y-12926190D01*
X34294047Y-9073190D02*
X34579761Y-9073190D01*
X34436904Y-9573190D02*
X34436904Y-9073190D01*
X34746428Y-9573190D02*
X34746428Y-9073190D01*
X34936904Y-9073190D01*
X34984523Y-9097000D01*
X35008333Y-9120809D01*
X35032142Y-9168428D01*
X35032142Y-9239857D01*
X35008333Y-9287476D01*
X34984523Y-9311285D01*
X34936904Y-9335095D01*
X34746428Y-9335095D01*
X35198809Y-9073190D02*
X35508333Y-9073190D01*
X35341666Y-9263666D01*
X35413095Y-9263666D01*
X35460714Y-9287476D01*
X35484523Y-9311285D01*
X35508333Y-9358904D01*
X35508333Y-9477952D01*
X35484523Y-9525571D01*
X35460714Y-9549380D01*
X35413095Y-9573190D01*
X35270238Y-9573190D01*
X35222619Y-9549380D01*
X35198809Y-9525571D01*
X29396666Y-20291190D02*
X29230000Y-20053095D01*
X29110952Y-20291190D02*
X29110952Y-19791190D01*
X29301428Y-19791190D01*
X29349047Y-19815000D01*
X29372857Y-19838809D01*
X29396666Y-19886428D01*
X29396666Y-19957857D01*
X29372857Y-20005476D01*
X29349047Y-20029285D01*
X29301428Y-20053095D01*
X29110952Y-20053095D01*
X29634761Y-20291190D02*
X29730000Y-20291190D01*
X29777619Y-20267380D01*
X29801428Y-20243571D01*
X29849047Y-20172142D01*
X29872857Y-20076904D01*
X29872857Y-19886428D01*
X29849047Y-19838809D01*
X29825238Y-19815000D01*
X29777619Y-19791190D01*
X29682380Y-19791190D01*
X29634761Y-19815000D01*
X29610952Y-19838809D01*
X29587142Y-19886428D01*
X29587142Y-20005476D01*
X29610952Y-20053095D01*
X29634761Y-20076904D01*
X29682380Y-20100714D01*
X29777619Y-20100714D01*
X29825238Y-20076904D01*
X29849047Y-20053095D01*
X29872857Y-20005476D01*
X289047Y-32156190D02*
X574761Y-32156190D01*
X431904Y-32656190D02*
X431904Y-32156190D01*
X836666Y-32156190D02*
X931904Y-32156190D01*
X979523Y-32180000D01*
X1027142Y-32227619D01*
X1050952Y-32322857D01*
X1050952Y-32489523D01*
X1027142Y-32584761D01*
X979523Y-32632380D01*
X931904Y-32656190D01*
X836666Y-32656190D01*
X789047Y-32632380D01*
X741428Y-32584761D01*
X717619Y-32489523D01*
X717619Y-32322857D01*
X741428Y-32227619D01*
X789047Y-32180000D01*
X836666Y-32156190D01*
X1265238Y-32156190D02*
X1265238Y-32560952D01*
X1289047Y-32608571D01*
X1312857Y-32632380D01*
X1360476Y-32656190D01*
X1455714Y-32656190D01*
X1503333Y-32632380D01*
X1527142Y-32608571D01*
X1550952Y-32560952D01*
X1550952Y-32156190D01*
X2074761Y-32608571D02*
X2050952Y-32632380D01*
X1979523Y-32656190D01*
X1931904Y-32656190D01*
X1860476Y-32632380D01*
X1812857Y-32584761D01*
X1789047Y-32537142D01*
X1765238Y-32441904D01*
X1765238Y-32370476D01*
X1789047Y-32275238D01*
X1812857Y-32227619D01*
X1860476Y-32180000D01*
X1931904Y-32156190D01*
X1979523Y-32156190D01*
X2050952Y-32180000D01*
X2074761Y-32203809D01*
X2289047Y-32656190D02*
X2289047Y-32156190D01*
X2289047Y-32394285D02*
X2574761Y-32394285D01*
X2574761Y-32656190D02*
X2574761Y-32156190D01*
X2812857Y-32656190D02*
X2812857Y-32156190D01*
X3003333Y-32156190D01*
X3050952Y-32180000D01*
X3074761Y-32203809D01*
X3098571Y-32251428D01*
X3098571Y-32322857D01*
X3074761Y-32370476D01*
X3050952Y-32394285D01*
X3003333Y-32418095D01*
X2812857Y-32418095D01*
X3289047Y-32513333D02*
X3527142Y-32513333D01*
X3241428Y-32656190D02*
X3408095Y-32156190D01*
X3574761Y-32656190D01*
X3741428Y-32656190D02*
X3741428Y-32156190D01*
X3860476Y-32156190D01*
X3931904Y-32180000D01*
X3979523Y-32227619D01*
X4003333Y-32275238D01*
X4027142Y-32370476D01*
X4027142Y-32441904D01*
X4003333Y-32537142D01*
X3979523Y-32584761D01*
X3931904Y-32632380D01*
X3860476Y-32656190D01*
X3741428Y-32656190D01*
X4503333Y-32656190D02*
X4217619Y-32656190D01*
X4360476Y-32656190D02*
X4360476Y-32156190D01*
X4312857Y-32227619D01*
X4265238Y-32275238D01*
X4217619Y-32299047D01*
X22864047Y-13061190D02*
X23149761Y-13061190D01*
X23006904Y-13561190D02*
X23006904Y-13061190D01*
X23316428Y-13561190D02*
X23316428Y-13061190D01*
X23506904Y-13061190D01*
X23554523Y-13085000D01*
X23578333Y-13108809D01*
X23602142Y-13156428D01*
X23602142Y-13227857D01*
X23578333Y-13275476D01*
X23554523Y-13299285D01*
X23506904Y-13323095D01*
X23316428Y-13323095D01*
X24078333Y-13561190D02*
X23792619Y-13561190D01*
X23935476Y-13561190D02*
X23935476Y-13061190D01*
X23887857Y-13132619D01*
X23840238Y-13180238D01*
X23792619Y-13204047D01*
X35476666Y-17371190D02*
X35310000Y-17133095D01*
X35190952Y-17371190D02*
X35190952Y-16871190D01*
X35381428Y-16871190D01*
X35429047Y-16895000D01*
X35452857Y-16918809D01*
X35476666Y-16966428D01*
X35476666Y-17037857D01*
X35452857Y-17085476D01*
X35429047Y-17109285D01*
X35381428Y-17133095D01*
X35190952Y-17133095D01*
X35762380Y-17085476D02*
X35714761Y-17061666D01*
X35690952Y-17037857D01*
X35667142Y-16990238D01*
X35667142Y-16966428D01*
X35690952Y-16918809D01*
X35714761Y-16895000D01*
X35762380Y-16871190D01*
X35857619Y-16871190D01*
X35905238Y-16895000D01*
X35929047Y-16918809D01*
X35952857Y-16966428D01*
X35952857Y-16990238D01*
X35929047Y-17037857D01*
X35905238Y-17061666D01*
X35857619Y-17085476D01*
X35762380Y-17085476D01*
X35714761Y-17109285D01*
X35690952Y-17133095D01*
X35667142Y-17180714D01*
X35667142Y-17275952D01*
X35690952Y-17323571D01*
X35714761Y-17347380D01*
X35762380Y-17371190D01*
X35857619Y-17371190D01*
X35905238Y-17347380D01*
X35929047Y-17323571D01*
X35952857Y-17275952D01*
X35952857Y-17180714D01*
X35929047Y-17133095D01*
X35905238Y-17109285D01*
X35857619Y-17085476D01*
X29428333Y-8616190D02*
X29428333Y-8973333D01*
X29404523Y-9044761D01*
X29356904Y-9092380D01*
X29285476Y-9116190D01*
X29237857Y-9116190D01*
X29666428Y-9116190D02*
X29666428Y-8616190D01*
X29856904Y-8616190D01*
X29904523Y-8640000D01*
X29928333Y-8663809D01*
X29952142Y-8711428D01*
X29952142Y-8782857D01*
X29928333Y-8830476D01*
X29904523Y-8854285D01*
X29856904Y-8878095D01*
X29666428Y-8878095D01*
X30428333Y-9116190D02*
X30142619Y-9116190D01*
X30285476Y-9116190D02*
X30285476Y-8616190D01*
X30237857Y-8687619D01*
X30190238Y-8735238D01*
X30142619Y-8759047D01*
D13*
X26260000Y-34980000D02*
G75*
G03*
X26260000Y-34980000I-3400000J0D01*
G01*
X36530000Y-23495000D02*
G75*
G03*
X36530000Y-23495000I-700000J0D01*
G01*
X30072064Y-24665000D02*
X29617936Y-24665000D01*
X30072064Y-26135000D02*
X29617936Y-26135000D01*
X44510000Y-14035000D02*
X43180000Y-14035000D01*
X41850000Y-11435000D02*
X41850000Y-8835000D01*
X44510000Y-8835000D02*
X41850000Y-8835000D01*
X44510000Y-11435000D02*
X44510000Y-8835000D01*
X44510000Y-11435000D02*
X41850000Y-11435000D01*
X44510000Y-12705000D02*
X44510000Y-14035000D01*
X30420000Y-34925000D02*
X30420000Y-33595000D01*
X30420000Y-36195000D02*
X30420000Y-36255000D01*
X33080000Y-36195000D02*
X33080000Y-36255000D01*
X30420000Y-36195000D02*
X33080000Y-36195000D01*
X30420000Y-36255000D02*
X33080000Y-36255000D01*
X30420000Y-33595000D02*
X31750000Y-33595000D01*
D14*
X14860000Y-45880000D02*
X5360000Y-45880000D01*
X5360000Y-45880000D02*
X5360000Y-38380000D01*
X5360000Y-38380000D02*
X14860000Y-38380000D01*
X14860000Y-38380000D02*
X14860000Y-45880000D01*
D13*
X33513752Y-31015000D02*
X32991248Y-31015000D01*
X33513752Y-32485000D02*
X32991248Y-32485000D01*
X18472500Y-14770000D02*
X18472500Y-12110000D01*
X3172500Y-14770000D02*
X18472500Y-14770000D01*
X3172500Y-12110000D02*
X18472500Y-12110000D01*
X1902500Y-14770000D02*
X572500Y-14770000D01*
X3172500Y-14770000D02*
X3172500Y-12110000D01*
X572500Y-14770000D02*
X572500Y-13440000D01*
X32792936Y-28475000D02*
X33247064Y-28475000D01*
X32792936Y-29945000D02*
X33247064Y-29945000D01*
X37405000Y-36195000D02*
X37405000Y-36255000D01*
X40065000Y-36195000D02*
X40065000Y-36255000D01*
X37405000Y-36195000D02*
X40065000Y-36195000D01*
X37405000Y-33595000D02*
X38735000Y-33595000D01*
X37405000Y-36255000D02*
X40065000Y-36255000D01*
X37405000Y-34925000D02*
X37405000Y-33595000D01*
X12800000Y-34697936D02*
X12800000Y-35152064D01*
X11330000Y-34697936D02*
X11330000Y-35152064D01*
D14*
X39625000Y-45880000D02*
X30125000Y-45880000D01*
X30125000Y-45880000D02*
X30125000Y-38380000D01*
X30125000Y-38380000D02*
X39625000Y-38380000D01*
X39625000Y-38380000D02*
X39625000Y-45880000D01*
D13*
X35445000Y-18685000D02*
X38245000Y-18685000D01*
X35445000Y-20685000D02*
X35445000Y-18685000D01*
X38245000Y-18685000D02*
X38245000Y-20685000D01*
X38245000Y-20685000D02*
X35445000Y-20685000D01*
X18477500Y-28620000D02*
X18477500Y-29950000D01*
X15877500Y-28620000D02*
X577500Y-28620000D01*
X15877500Y-31280000D02*
X577500Y-31280000D01*
X15877500Y-28620000D02*
X15877500Y-31280000D01*
X17147500Y-28620000D02*
X18477500Y-28620000D01*
X577500Y-28620000D02*
X577500Y-31280000D01*
X6715000Y-34210000D02*
X6715000Y-35610000D01*
X5415000Y-33510000D02*
X6015000Y-33510000D01*
X4715000Y-35610000D02*
X4715000Y-34210000D01*
X6015000Y-36310000D02*
X5415000Y-36310000D01*
X6715000Y-34210000D02*
G75*
G03*
X6015000Y-33510000I-699999J1D01*
G01*
X5415000Y-33510000D02*
G75*
G03*
X4715000Y-34210000I-1J-699999D01*
G01*
X4715000Y-35610000D02*
G75*
G03*
X5415000Y-36310000I699999J-1D01*
G01*
X6015000Y-36310000D02*
G75*
G03*
X6715000Y-35610000I1J699999D01*
G01*
D15*
X33275000Y-25285000D02*
X33275000Y-26785000D01*
X37115000Y-25285000D02*
X37115000Y-26785000D01*
D16*
X36650000Y-24460000D02*
G75*
G03*
X36650000Y-24460000I-100000J0D01*
G01*
D13*
X41850000Y-19050000D02*
X44510000Y-19050000D01*
X44510000Y-19050000D02*
X44510000Y-29270000D01*
X41850000Y-19050000D02*
X41850000Y-29270000D01*
X41850000Y-29270000D02*
X44510000Y-29270000D01*
X41850000Y-16450000D02*
X43180000Y-16450000D01*
X41850000Y-17780000D02*
X41850000Y-16450000D01*
X39070000Y-23495000D02*
G75*
G03*
X39070000Y-23495000I-700000J0D01*
G01*
X28210000Y-30560000D02*
X28210000Y-29160000D01*
X28910000Y-28460000D02*
X29510000Y-28460000D01*
X29510000Y-31260000D02*
X28910000Y-31260000D01*
X30210000Y-29160000D02*
X30210000Y-30560000D01*
X30210000Y-29160000D02*
G75*
G03*
X29510000Y-28460000I-699999J1D01*
G01*
X28210000Y-30560000D02*
G75*
G03*
X28910000Y-31260000I699999J-1D01*
G01*
X28910000Y-28460000D02*
G75*
G03*
X28210000Y-29160000I-1J-699999D01*
G01*
X29510000Y-31260000D02*
G75*
G03*
X30210000Y-30560000I1J699999D01*
G01*
X30072064Y-22125000D02*
X29617936Y-22125000D01*
X30072064Y-23595000D02*
X29617936Y-23595000D01*
X25300000Y-23233748D02*
X25300000Y-23756252D01*
X26770000Y-23233748D02*
X26770000Y-23756252D01*
X7560000Y-36255000D02*
X10220000Y-36255000D01*
X7560000Y-34925000D02*
X7560000Y-33595000D01*
X7560000Y-36195000D02*
X7560000Y-36255000D01*
X10220000Y-36195000D02*
X10220000Y-36255000D01*
X7560000Y-33595000D02*
X8890000Y-33595000D01*
X7560000Y-36195000D02*
X10220000Y-36195000D01*
X39270000Y-27347936D02*
X39270000Y-27802064D01*
X40740000Y-27347936D02*
X40740000Y-27802064D01*
X35660000Y-35517064D02*
X35660000Y-35062936D01*
X34190000Y-35517064D02*
X34190000Y-35062936D01*
X1845000Y-40005000D02*
X4505000Y-40005000D01*
X1845000Y-37405000D02*
X3175000Y-37405000D01*
X1845000Y-40005000D02*
X1845000Y-40065000D01*
X4505000Y-40005000D02*
X4505000Y-40065000D01*
X1845000Y-40065000D02*
X4505000Y-40065000D01*
X1845000Y-38735000D02*
X1845000Y-37405000D01*
X18425000Y-9585000D02*
X17095000Y-9585000D01*
X27375000Y-9585000D02*
X27375000Y-6925000D01*
X17095000Y-9585000D02*
X17095000Y-8255000D01*
X19695000Y-6925000D02*
X27375000Y-6925000D01*
X19695000Y-9585000D02*
X27375000Y-9585000D01*
X19695000Y-9585000D02*
X19695000Y-6925000D01*
X36095000Y-30617936D02*
X36095000Y-31072064D01*
X37565000Y-30617936D02*
X37565000Y-31072064D01*
X44510000Y-30405000D02*
X41850000Y-30405000D01*
X44510000Y-35545000D02*
X44510000Y-30405000D01*
X44510000Y-38145000D02*
X43180000Y-38145000D01*
X44510000Y-36815000D02*
X44510000Y-38145000D01*
X44510000Y-35545000D02*
X41850000Y-35545000D01*
X41850000Y-35545000D02*
X41850000Y-30405000D01*
X38800000Y-13970000D02*
G75*
G03*
X38800000Y-13970000I-700000J0D01*
G01*
D15*
X27660000Y-16155000D02*
X30760000Y-16155000D01*
X27660000Y-13055000D02*
X30760000Y-13055000D01*
D16*
X25690000Y-13150000D02*
G75*
G03*
X25690000Y-13150000I-100000J0D01*
G01*
D13*
X35625000Y-10795000D02*
G75*
G03*
X35625000Y-10795000I-700000J0D01*
G01*
X29707064Y-17680000D02*
X29252936Y-17680000D01*
X29707064Y-19150000D02*
X29252936Y-19150000D01*
X3405000Y-34925000D02*
G75*
G03*
X3405000Y-34925000I-1500000J0D01*
G01*
X24195000Y-15240000D02*
G75*
G03*
X24195000Y-15240000I-700000J0D01*
G01*
X36295000Y-14742936D02*
X36295000Y-15197064D01*
X34825000Y-14742936D02*
X34825000Y-15197064D01*
X31880000Y-9795000D02*
X31880000Y-11795000D01*
X31880000Y-11795000D02*
X29080000Y-11795000D01*
X29080000Y-9795000D02*
X31880000Y-9795000D01*
X29080000Y-11795000D02*
X29080000Y-9795000D01*
%LPC*%
D17*
X23660000Y-29900000D03*
X22160000Y-29900000D03*
D18*
X35830000Y-23495000D03*
D19*
X30845000Y-25400000D03*
X28845000Y-25400000D03*
D20*
X43180000Y-12705000D03*
D21*
X43180000Y-10165000D03*
D20*
X31750000Y-34925000D03*
D22*
X13810000Y-43380000D03*
D23*
X10160000Y-44630000D03*
X10160000Y-42030000D03*
D22*
X6460000Y-43380000D03*
D24*
X11910000Y-39880000D03*
X8410000Y-39880000D03*
D25*
X34290000Y-31750000D03*
X32215000Y-31750000D03*
D26*
X1902500Y-13440000D03*
X4442500Y-13440000D03*
X6982500Y-13440000D03*
X9522500Y-13440000D03*
X12062500Y-13440000D03*
X14602500Y-13440000D03*
X17142500Y-13440000D03*
D27*
X32020000Y-29210000D03*
X34020000Y-29210000D03*
D28*
X2540000Y-8890000D03*
D20*
X38735000Y-34925000D03*
D29*
X12065000Y-33925000D03*
X12065000Y-35925000D03*
D22*
X38575000Y-43380000D03*
D23*
X34925000Y-42030000D03*
D22*
X31225000Y-43380000D03*
D23*
X34925000Y-44630000D03*
D24*
X36675000Y-39880000D03*
X33175000Y-39880000D03*
D30*
X36195000Y-19685000D03*
X37495000Y-19685000D03*
D26*
X17147500Y-29950000D03*
X14607500Y-29950000D03*
X12067500Y-29950000D03*
X9527500Y-29950000D03*
X6987500Y-29950000D03*
X4447500Y-29950000D03*
X1907500Y-29950000D03*
D31*
X5715000Y-34260000D03*
D32*
X5715000Y-35560000D03*
D33*
X38481000Y-10619999D03*
X38481000Y-10970001D03*
D34*
X38989000Y-10795000D03*
D35*
X36545000Y-25435000D03*
X35645000Y-25435000D03*
X34745000Y-25435000D03*
X33845000Y-25435000D03*
X33845000Y-26635000D03*
X34745000Y-26635000D03*
X35645000Y-26635000D03*
X36545000Y-26635000D03*
D20*
X43180000Y-17780000D03*
D21*
X43180000Y-20320000D03*
X43180000Y-22860000D03*
X43180000Y-25400000D03*
X43180000Y-27940000D03*
D18*
X38370000Y-23495000D03*
D36*
X29210000Y-30510000D03*
D37*
X29210000Y-29210000D03*
D19*
X30845000Y-22860000D03*
X28845000Y-22860000D03*
D38*
X26035000Y-22457500D03*
X26035000Y-24532500D03*
D20*
X8890000Y-34925000D03*
D29*
X40005000Y-26575000D03*
X40005000Y-28575000D03*
D39*
X34925000Y-36290000D03*
X34925000Y-34290000D03*
D28*
X42545000Y-43180000D03*
D20*
X3175000Y-38735000D03*
X18425000Y-8255000D03*
D21*
X20965000Y-8255000D03*
X23505000Y-8255000D03*
X26045000Y-8255000D03*
D29*
X36830000Y-29845000D03*
X36830000Y-31845000D03*
D20*
X43180000Y-36815000D03*
D21*
X43180000Y-34275000D03*
X43180000Y-31735000D03*
D28*
X2540000Y-43180000D03*
D18*
X38100000Y-13970000D03*
D40*
X27060000Y-13630000D03*
X27060000Y-14280000D03*
X27060000Y-14930000D03*
X27060000Y-15580000D03*
X31360000Y-15580000D03*
X31360000Y-14930000D03*
X31360000Y-14280000D03*
X31360000Y-13630000D03*
D18*
X34925000Y-10795000D03*
D19*
X30480000Y-18415000D03*
X28480000Y-18415000D03*
D41*
X1905000Y-34925000D03*
D18*
X23495000Y-15240000D03*
D29*
X35560000Y-13970000D03*
X35560000Y-15970000D03*
D30*
X31130000Y-10795000D03*
X29830000Y-10795000D03*
M02*
