%FSLAX45Y45*%
G04 Gerber Fmt 4.5, Leading zero omitted, Abs format (unit mm)*
G04 Created by KiCad (PCBNEW (6.0.0-0)) date 2022-02-18 10:34:28*
%MOMM*%
%LPD*%
G01*
G04 APERTURE LIST*
%TA.AperFunction,Profile*%
%ADD10C,0.100000*%
%TD*%
%ADD11C,0.200000*%
%ADD12C,0.120000*%
%ADD13C,0.210000*%
G04 APERTURE END LIST*
D10*
X0Y-635000D02*
X4500000Y-635000D01*
X4500000Y-635000D02*
X4500000Y-4600000D01*
X4500000Y-4600000D02*
X0Y-4600000D01*
X0Y-4600000D02*
X0Y-635000D01*
D11*
D12*
X956000Y-4143000D02*
X1076000Y-4263000D01*
X1076000Y-4143000D02*
X956000Y-4263000D01*
X956000Y-4403000D02*
X1076000Y-4523000D01*
X1076000Y-4403000D02*
X956000Y-4523000D01*
X3432500Y-4143000D02*
X3552500Y-4263000D01*
X3552500Y-4143000D02*
X3432500Y-4263000D01*
X3432500Y-4403000D02*
X3552500Y-4523000D01*
X3552500Y-4403000D02*
X3432500Y-4523000D01*
D13*
X359000Y-889000D02*
G75*
G03*
X359000Y-889000I-105000J0D01*
G01*
X359000Y-4318000D02*
G75*
G03*
X359000Y-4318000I-105000J0D01*
G01*
X4359500Y-4318000D02*
G75*
G03*
X4359500Y-4318000I-105000J0D01*
G01*
D11*
X252619Y-4915476D02*
X252619Y-4715476D01*
X300238Y-4715476D01*
X328810Y-4725000D01*
X347857Y-4744048D01*
X357381Y-4763095D01*
X366905Y-4801190D01*
X366905Y-4829762D01*
X357381Y-4867857D01*
X347857Y-4886905D01*
X328810Y-4905952D01*
X300238Y-4915476D01*
X252619Y-4915476D01*
X452619Y-4915476D02*
X452619Y-4782143D01*
X452619Y-4820238D02*
X462143Y-4801190D01*
X471667Y-4791667D01*
X490714Y-4782143D01*
X509762Y-4782143D01*
X576429Y-4915476D02*
X576429Y-4782143D01*
X576429Y-4715476D02*
X566905Y-4725000D01*
X576429Y-4734524D01*
X585952Y-4725000D01*
X576429Y-4715476D01*
X576429Y-4734524D01*
X700238Y-4915476D02*
X681190Y-4905952D01*
X671667Y-4886905D01*
X671667Y-4715476D01*
X805000Y-4915476D02*
X785952Y-4905952D01*
X776428Y-4886905D01*
X776428Y-4715476D01*
X1033571Y-4915476D02*
X1033571Y-4715476D01*
X1100238Y-4858333D01*
X1166905Y-4715476D01*
X1166905Y-4915476D01*
X1347857Y-4915476D02*
X1347857Y-4810714D01*
X1338333Y-4791667D01*
X1319286Y-4782143D01*
X1281190Y-4782143D01*
X1262143Y-4791667D01*
X1347857Y-4905952D02*
X1328810Y-4915476D01*
X1281190Y-4915476D01*
X1262143Y-4905952D01*
X1252619Y-4886905D01*
X1252619Y-4867857D01*
X1262143Y-4848810D01*
X1281190Y-4839286D01*
X1328810Y-4839286D01*
X1347857Y-4829762D01*
X1443095Y-4782143D02*
X1443095Y-4982143D01*
X1443095Y-4791667D02*
X1462143Y-4782143D01*
X1500238Y-4782143D01*
X1519286Y-4791667D01*
X1528809Y-4801190D01*
X1538333Y-4820238D01*
X1538333Y-4877381D01*
X1528809Y-4896429D01*
X1519286Y-4905952D01*
X1500238Y-4915476D01*
X1462143Y-4915476D01*
X1443095Y-4905952D01*
X1624048Y-4896429D02*
X1633571Y-4905952D01*
X1624048Y-4915476D01*
X1614524Y-4905952D01*
X1624048Y-4896429D01*
X1624048Y-4915476D01*
X1624048Y-4791667D02*
X1633571Y-4801190D01*
X1624048Y-4810714D01*
X1614524Y-4801190D01*
X1624048Y-4791667D01*
X1624048Y-4810714D01*
D12*
X-125000Y-5185000D02*
X-5000Y-5305000D01*
X-5000Y-5185000D02*
X-125000Y-5305000D01*
D11*
X357381Y-5335476D02*
X243095Y-5335476D01*
X300238Y-5335476D02*
X300238Y-5135476D01*
X281190Y-5164048D01*
X262143Y-5183095D01*
X243095Y-5192619D01*
X443095Y-5316429D02*
X452619Y-5325952D01*
X443095Y-5335476D01*
X433571Y-5325952D01*
X443095Y-5316429D01*
X443095Y-5335476D01*
X528810Y-5154524D02*
X538333Y-5145000D01*
X557381Y-5135476D01*
X605000Y-5135476D01*
X624048Y-5145000D01*
X633571Y-5154524D01*
X643095Y-5173571D01*
X643095Y-5192619D01*
X633571Y-5221190D01*
X519286Y-5335476D01*
X643095Y-5335476D01*
X766905Y-5135476D02*
X785952Y-5135476D01*
X805000Y-5145000D01*
X814524Y-5154524D01*
X824048Y-5173571D01*
X833571Y-5211667D01*
X833571Y-5259286D01*
X824048Y-5297381D01*
X814524Y-5316429D01*
X805000Y-5325952D01*
X785952Y-5335476D01*
X766905Y-5335476D01*
X747857Y-5325952D01*
X738333Y-5316429D01*
X728809Y-5297381D01*
X719286Y-5259286D01*
X719286Y-5211667D01*
X728809Y-5173571D01*
X738333Y-5154524D01*
X747857Y-5145000D01*
X766905Y-5135476D01*
X957381Y-5135476D02*
X976428Y-5135476D01*
X995476Y-5145000D01*
X1005000Y-5154524D01*
X1014524Y-5173571D01*
X1024048Y-5211667D01*
X1024048Y-5259286D01*
X1014524Y-5297381D01*
X1005000Y-5316429D01*
X995476Y-5325952D01*
X976428Y-5335476D01*
X957381Y-5335476D01*
X938333Y-5325952D01*
X928809Y-5316429D01*
X919286Y-5297381D01*
X909762Y-5259286D01*
X909762Y-5211667D01*
X919286Y-5173571D01*
X928809Y-5154524D01*
X938333Y-5145000D01*
X957381Y-5135476D01*
X1109762Y-5335476D02*
X1109762Y-5202143D01*
X1109762Y-5221190D02*
X1119286Y-5211667D01*
X1138333Y-5202143D01*
X1166905Y-5202143D01*
X1185952Y-5211667D01*
X1195476Y-5230714D01*
X1195476Y-5335476D01*
X1195476Y-5230714D02*
X1205000Y-5211667D01*
X1224048Y-5202143D01*
X1252619Y-5202143D01*
X1271667Y-5211667D01*
X1281190Y-5230714D01*
X1281190Y-5335476D01*
X1376429Y-5335476D02*
X1376429Y-5202143D01*
X1376429Y-5221190D02*
X1385952Y-5211667D01*
X1405000Y-5202143D01*
X1433571Y-5202143D01*
X1452619Y-5211667D01*
X1462143Y-5230714D01*
X1462143Y-5335476D01*
X1462143Y-5230714D02*
X1471667Y-5211667D01*
X1490714Y-5202143D01*
X1519286Y-5202143D01*
X1538333Y-5211667D01*
X1547857Y-5230714D01*
X1547857Y-5335476D01*
X1938333Y-5125952D02*
X1766905Y-5383095D01*
X2195476Y-5135476D02*
X2214524Y-5135476D01*
X2233571Y-5145000D01*
X2243095Y-5154524D01*
X2252619Y-5173571D01*
X2262143Y-5211667D01*
X2262143Y-5259286D01*
X2252619Y-5297381D01*
X2243095Y-5316429D01*
X2233571Y-5325952D01*
X2214524Y-5335476D01*
X2195476Y-5335476D01*
X2176429Y-5325952D01*
X2166905Y-5316429D01*
X2157381Y-5297381D01*
X2147857Y-5259286D01*
X2147857Y-5211667D01*
X2157381Y-5173571D01*
X2166905Y-5154524D01*
X2176429Y-5145000D01*
X2195476Y-5135476D01*
X2347857Y-5316429D02*
X2357381Y-5325952D01*
X2347857Y-5335476D01*
X2338333Y-5325952D01*
X2347857Y-5316429D01*
X2347857Y-5335476D01*
X2481190Y-5135476D02*
X2500238Y-5135476D01*
X2519286Y-5145000D01*
X2528810Y-5154524D01*
X2538333Y-5173571D01*
X2547857Y-5211667D01*
X2547857Y-5259286D01*
X2538333Y-5297381D01*
X2528810Y-5316429D01*
X2519286Y-5325952D01*
X2500238Y-5335476D01*
X2481190Y-5335476D01*
X2462143Y-5325952D01*
X2452619Y-5316429D01*
X2443095Y-5297381D01*
X2433571Y-5259286D01*
X2433571Y-5211667D01*
X2443095Y-5173571D01*
X2452619Y-5154524D01*
X2462143Y-5145000D01*
X2481190Y-5135476D01*
X2719286Y-5202143D02*
X2719286Y-5335476D01*
X2671667Y-5125952D02*
X2624048Y-5268810D01*
X2747857Y-5268810D01*
X2805000Y-5135476D02*
X2938333Y-5135476D01*
X2852619Y-5335476D01*
X3005000Y-5154524D02*
X3014524Y-5145000D01*
X3033571Y-5135476D01*
X3081190Y-5135476D01*
X3100238Y-5145000D01*
X3109762Y-5154524D01*
X3119286Y-5173571D01*
X3119286Y-5192619D01*
X3109762Y-5221190D01*
X2995476Y-5335476D01*
X3119286Y-5335476D01*
X3195476Y-5135476D02*
X3195476Y-5173571D01*
X3271667Y-5135476D02*
X3271667Y-5173571D01*
X3566905Y-5411667D02*
X3557381Y-5402143D01*
X3538333Y-5373571D01*
X3528809Y-5354524D01*
X3519286Y-5325952D01*
X3509762Y-5278333D01*
X3509762Y-5240238D01*
X3519286Y-5192619D01*
X3528809Y-5164048D01*
X3538333Y-5145000D01*
X3557381Y-5116429D01*
X3566905Y-5106905D01*
X3728809Y-5202143D02*
X3728809Y-5335476D01*
X3681190Y-5125952D02*
X3633571Y-5268810D01*
X3757381Y-5268810D01*
X3985952Y-5335476D02*
X3985952Y-5135476D01*
X4071667Y-5335476D02*
X4071667Y-5230714D01*
X4062143Y-5211667D01*
X4043095Y-5202143D01*
X4014524Y-5202143D01*
X3995476Y-5211667D01*
X3985952Y-5221190D01*
X4195476Y-5335476D02*
X4176428Y-5325952D01*
X4166905Y-5316429D01*
X4157381Y-5297381D01*
X4157381Y-5240238D01*
X4166905Y-5221190D01*
X4176428Y-5211667D01*
X4195476Y-5202143D01*
X4224048Y-5202143D01*
X4243095Y-5211667D01*
X4252619Y-5221190D01*
X4262143Y-5240238D01*
X4262143Y-5297381D01*
X4252619Y-5316429D01*
X4243095Y-5325952D01*
X4224048Y-5335476D01*
X4195476Y-5335476D01*
X4376429Y-5335476D02*
X4357381Y-5325952D01*
X4347857Y-5306905D01*
X4347857Y-5135476D01*
X4528810Y-5325952D02*
X4509762Y-5335476D01*
X4471667Y-5335476D01*
X4452619Y-5325952D01*
X4443095Y-5306905D01*
X4443095Y-5230714D01*
X4452619Y-5211667D01*
X4471667Y-5202143D01*
X4509762Y-5202143D01*
X4528810Y-5211667D01*
X4538333Y-5230714D01*
X4538333Y-5249762D01*
X4443095Y-5268810D01*
X4614524Y-5325952D02*
X4633571Y-5335476D01*
X4671667Y-5335476D01*
X4690714Y-5325952D01*
X4700238Y-5306905D01*
X4700238Y-5297381D01*
X4690714Y-5278333D01*
X4671667Y-5268810D01*
X4643095Y-5268810D01*
X4624048Y-5259286D01*
X4614524Y-5240238D01*
X4614524Y-5230714D01*
X4624048Y-5211667D01*
X4643095Y-5202143D01*
X4671667Y-5202143D01*
X4690714Y-5211667D01*
X4766905Y-5411667D02*
X4776429Y-5402143D01*
X4795476Y-5373571D01*
X4805000Y-5354524D01*
X4814524Y-5325952D01*
X4824048Y-5278333D01*
X4824048Y-5240238D01*
X4814524Y-5192619D01*
X4805000Y-5164048D01*
X4795476Y-5145000D01*
X4776429Y-5116429D01*
X4766905Y-5106905D01*
X5128810Y-5411667D02*
X5119286Y-5402143D01*
X5100238Y-5373571D01*
X5090714Y-5354524D01*
X5081190Y-5325952D01*
X5071667Y-5278333D01*
X5071667Y-5240238D01*
X5081190Y-5192619D01*
X5090714Y-5164048D01*
X5100238Y-5145000D01*
X5119286Y-5116429D01*
X5128810Y-5106905D01*
X5205000Y-5202143D02*
X5205000Y-5335476D01*
X5205000Y-5221190D02*
X5214524Y-5211667D01*
X5233571Y-5202143D01*
X5262143Y-5202143D01*
X5281190Y-5211667D01*
X5290714Y-5230714D01*
X5290714Y-5335476D01*
X5414524Y-5335476D02*
X5395476Y-5325952D01*
X5385952Y-5316429D01*
X5376429Y-5297381D01*
X5376429Y-5240238D01*
X5385952Y-5221190D01*
X5395476Y-5211667D01*
X5414524Y-5202143D01*
X5443095Y-5202143D01*
X5462143Y-5211667D01*
X5471667Y-5221190D01*
X5481190Y-5240238D01*
X5481190Y-5297381D01*
X5471667Y-5316429D01*
X5462143Y-5325952D01*
X5443095Y-5335476D01*
X5414524Y-5335476D01*
X5538333Y-5202143D02*
X5614524Y-5202143D01*
X5566905Y-5135476D02*
X5566905Y-5306905D01*
X5576429Y-5325952D01*
X5595476Y-5335476D01*
X5614524Y-5335476D01*
X5833571Y-5202143D02*
X5833571Y-5402143D01*
X5833571Y-5211667D02*
X5852619Y-5202143D01*
X5890714Y-5202143D01*
X5909762Y-5211667D01*
X5919286Y-5221190D01*
X5928809Y-5240238D01*
X5928809Y-5297381D01*
X5919286Y-5316429D01*
X5909762Y-5325952D01*
X5890714Y-5335476D01*
X5852619Y-5335476D01*
X5833571Y-5325952D01*
X6043095Y-5335476D02*
X6024048Y-5325952D01*
X6014524Y-5306905D01*
X6014524Y-5135476D01*
X6205000Y-5335476D02*
X6205000Y-5230714D01*
X6195476Y-5211667D01*
X6176428Y-5202143D01*
X6138333Y-5202143D01*
X6119286Y-5211667D01*
X6205000Y-5325952D02*
X6185952Y-5335476D01*
X6138333Y-5335476D01*
X6119286Y-5325952D01*
X6109762Y-5306905D01*
X6109762Y-5287857D01*
X6119286Y-5268810D01*
X6138333Y-5259286D01*
X6185952Y-5259286D01*
X6205000Y-5249762D01*
X6271667Y-5202143D02*
X6347857Y-5202143D01*
X6300238Y-5135476D02*
X6300238Y-5306905D01*
X6309762Y-5325952D01*
X6328809Y-5335476D01*
X6347857Y-5335476D01*
X6490714Y-5325952D02*
X6471667Y-5335476D01*
X6433571Y-5335476D01*
X6414524Y-5325952D01*
X6405000Y-5306905D01*
X6405000Y-5230714D01*
X6414524Y-5211667D01*
X6433571Y-5202143D01*
X6471667Y-5202143D01*
X6490714Y-5211667D01*
X6500238Y-5230714D01*
X6500238Y-5249762D01*
X6405000Y-5268810D01*
X6671667Y-5335476D02*
X6671667Y-5135476D01*
X6671667Y-5325952D02*
X6652619Y-5335476D01*
X6614524Y-5335476D01*
X6595476Y-5325952D01*
X6585952Y-5316429D01*
X6576428Y-5297381D01*
X6576428Y-5240238D01*
X6585952Y-5221190D01*
X6595476Y-5211667D01*
X6614524Y-5202143D01*
X6652619Y-5202143D01*
X6671667Y-5211667D01*
X6747857Y-5411667D02*
X6757381Y-5402143D01*
X6776428Y-5373571D01*
X6785952Y-5354524D01*
X6795476Y-5325952D01*
X6805000Y-5278333D01*
X6805000Y-5240238D01*
X6795476Y-5192619D01*
X6785952Y-5164048D01*
X6776428Y-5145000D01*
X6757381Y-5116429D01*
X6747857Y-5106905D01*
X-5000Y-5509000D02*
G75*
G03*
X-5000Y-5509000I-100000J0D01*
G01*
X243095Y-5418524D02*
X252619Y-5409000D01*
X271667Y-5399476D01*
X319286Y-5399476D01*
X338333Y-5409000D01*
X347857Y-5418524D01*
X357381Y-5437571D01*
X357381Y-5456619D01*
X347857Y-5485190D01*
X233571Y-5599476D01*
X357381Y-5599476D01*
X443095Y-5580429D02*
X452619Y-5589952D01*
X443095Y-5599476D01*
X433571Y-5589952D01*
X443095Y-5580429D01*
X443095Y-5599476D01*
X643095Y-5599476D02*
X528810Y-5599476D01*
X585952Y-5599476D02*
X585952Y-5399476D01*
X566905Y-5428048D01*
X547857Y-5447095D01*
X528810Y-5456619D01*
X766905Y-5399476D02*
X785952Y-5399476D01*
X805000Y-5409000D01*
X814524Y-5418524D01*
X824048Y-5437571D01*
X833571Y-5475667D01*
X833571Y-5523286D01*
X824048Y-5561381D01*
X814524Y-5580429D01*
X805000Y-5589952D01*
X785952Y-5599476D01*
X766905Y-5599476D01*
X747857Y-5589952D01*
X738333Y-5580429D01*
X728809Y-5561381D01*
X719286Y-5523286D01*
X719286Y-5475667D01*
X728809Y-5437571D01*
X738333Y-5418524D01*
X747857Y-5409000D01*
X766905Y-5399476D01*
X957381Y-5399476D02*
X976428Y-5399476D01*
X995476Y-5409000D01*
X1005000Y-5418524D01*
X1014524Y-5437571D01*
X1024048Y-5475667D01*
X1024048Y-5523286D01*
X1014524Y-5561381D01*
X1005000Y-5580429D01*
X995476Y-5589952D01*
X976428Y-5599476D01*
X957381Y-5599476D01*
X938333Y-5589952D01*
X928809Y-5580429D01*
X919286Y-5561381D01*
X909762Y-5523286D01*
X909762Y-5475667D01*
X919286Y-5437571D01*
X928809Y-5418524D01*
X938333Y-5409000D01*
X957381Y-5399476D01*
X1109762Y-5599476D02*
X1109762Y-5466143D01*
X1109762Y-5485190D02*
X1119286Y-5475667D01*
X1138333Y-5466143D01*
X1166905Y-5466143D01*
X1185952Y-5475667D01*
X1195476Y-5494714D01*
X1195476Y-5599476D01*
X1195476Y-5494714D02*
X1205000Y-5475667D01*
X1224048Y-5466143D01*
X1252619Y-5466143D01*
X1271667Y-5475667D01*
X1281190Y-5494714D01*
X1281190Y-5599476D01*
X1376429Y-5599476D02*
X1376429Y-5466143D01*
X1376429Y-5485190D02*
X1385952Y-5475667D01*
X1405000Y-5466143D01*
X1433571Y-5466143D01*
X1452619Y-5475667D01*
X1462143Y-5494714D01*
X1462143Y-5599476D01*
X1462143Y-5494714D02*
X1471667Y-5475667D01*
X1490714Y-5466143D01*
X1519286Y-5466143D01*
X1538333Y-5475667D01*
X1547857Y-5494714D01*
X1547857Y-5599476D01*
X1938333Y-5389952D02*
X1766905Y-5647095D01*
X2195476Y-5399476D02*
X2214524Y-5399476D01*
X2233571Y-5409000D01*
X2243095Y-5418524D01*
X2252619Y-5437571D01*
X2262143Y-5475667D01*
X2262143Y-5523286D01*
X2252619Y-5561381D01*
X2243095Y-5580429D01*
X2233571Y-5589952D01*
X2214524Y-5599476D01*
X2195476Y-5599476D01*
X2176429Y-5589952D01*
X2166905Y-5580429D01*
X2157381Y-5561381D01*
X2147857Y-5523286D01*
X2147857Y-5475667D01*
X2157381Y-5437571D01*
X2166905Y-5418524D01*
X2176429Y-5409000D01*
X2195476Y-5399476D01*
X2347857Y-5580429D02*
X2357381Y-5589952D01*
X2347857Y-5599476D01*
X2338333Y-5589952D01*
X2347857Y-5580429D01*
X2347857Y-5599476D01*
X2481190Y-5399476D02*
X2500238Y-5399476D01*
X2519286Y-5409000D01*
X2528810Y-5418524D01*
X2538333Y-5437571D01*
X2547857Y-5475667D01*
X2547857Y-5523286D01*
X2538333Y-5561381D01*
X2528810Y-5580429D01*
X2519286Y-5589952D01*
X2500238Y-5599476D01*
X2481190Y-5599476D01*
X2462143Y-5589952D01*
X2452619Y-5580429D01*
X2443095Y-5561381D01*
X2433571Y-5523286D01*
X2433571Y-5475667D01*
X2443095Y-5437571D01*
X2452619Y-5418524D01*
X2462143Y-5409000D01*
X2481190Y-5399476D01*
X2662143Y-5485190D02*
X2643095Y-5475667D01*
X2633571Y-5466143D01*
X2624048Y-5447095D01*
X2624048Y-5437571D01*
X2633571Y-5418524D01*
X2643095Y-5409000D01*
X2662143Y-5399476D01*
X2700238Y-5399476D01*
X2719286Y-5409000D01*
X2728810Y-5418524D01*
X2738333Y-5437571D01*
X2738333Y-5447095D01*
X2728810Y-5466143D01*
X2719286Y-5475667D01*
X2700238Y-5485190D01*
X2662143Y-5485190D01*
X2643095Y-5494714D01*
X2633571Y-5504238D01*
X2624048Y-5523286D01*
X2624048Y-5561381D01*
X2633571Y-5580429D01*
X2643095Y-5589952D01*
X2662143Y-5599476D01*
X2700238Y-5599476D01*
X2719286Y-5589952D01*
X2728810Y-5580429D01*
X2738333Y-5561381D01*
X2738333Y-5523286D01*
X2728810Y-5504238D01*
X2719286Y-5494714D01*
X2700238Y-5485190D01*
X2814524Y-5418524D02*
X2824048Y-5409000D01*
X2843095Y-5399476D01*
X2890714Y-5399476D01*
X2909762Y-5409000D01*
X2919286Y-5418524D01*
X2928809Y-5437571D01*
X2928809Y-5456619D01*
X2919286Y-5485190D01*
X2805000Y-5599476D01*
X2928809Y-5599476D01*
X2995476Y-5399476D02*
X3128809Y-5399476D01*
X3043095Y-5599476D01*
X3195476Y-5399476D02*
X3195476Y-5437571D01*
X3271667Y-5399476D02*
X3271667Y-5437571D01*
X3566905Y-5675667D02*
X3557381Y-5666143D01*
X3538333Y-5637571D01*
X3528809Y-5618524D01*
X3519286Y-5589952D01*
X3509762Y-5542333D01*
X3509762Y-5504238D01*
X3519286Y-5456619D01*
X3528809Y-5428048D01*
X3538333Y-5409000D01*
X3557381Y-5380429D01*
X3566905Y-5370905D01*
X3624048Y-5399476D02*
X3747857Y-5399476D01*
X3681190Y-5475667D01*
X3709762Y-5475667D01*
X3728809Y-5485190D01*
X3738333Y-5494714D01*
X3747857Y-5513762D01*
X3747857Y-5561381D01*
X3738333Y-5580429D01*
X3728809Y-5589952D01*
X3709762Y-5599476D01*
X3652619Y-5599476D01*
X3633571Y-5589952D01*
X3624048Y-5580429D01*
X3985952Y-5599476D02*
X3985952Y-5399476D01*
X4071667Y-5599476D02*
X4071667Y-5494714D01*
X4062143Y-5475667D01*
X4043095Y-5466143D01*
X4014524Y-5466143D01*
X3995476Y-5475667D01*
X3985952Y-5485190D01*
X4195476Y-5599476D02*
X4176428Y-5589952D01*
X4166905Y-5580429D01*
X4157381Y-5561381D01*
X4157381Y-5504238D01*
X4166905Y-5485190D01*
X4176428Y-5475667D01*
X4195476Y-5466143D01*
X4224048Y-5466143D01*
X4243095Y-5475667D01*
X4252619Y-5485190D01*
X4262143Y-5504238D01*
X4262143Y-5561381D01*
X4252619Y-5580429D01*
X4243095Y-5589952D01*
X4224048Y-5599476D01*
X4195476Y-5599476D01*
X4376429Y-5599476D02*
X4357381Y-5589952D01*
X4347857Y-5570905D01*
X4347857Y-5399476D01*
X4528810Y-5589952D02*
X4509762Y-5599476D01*
X4471667Y-5599476D01*
X4452619Y-5589952D01*
X4443095Y-5570905D01*
X4443095Y-5494714D01*
X4452619Y-5475667D01*
X4471667Y-5466143D01*
X4509762Y-5466143D01*
X4528810Y-5475667D01*
X4538333Y-5494714D01*
X4538333Y-5513762D01*
X4443095Y-5532810D01*
X4614524Y-5589952D02*
X4633571Y-5599476D01*
X4671667Y-5599476D01*
X4690714Y-5589952D01*
X4700238Y-5570905D01*
X4700238Y-5561381D01*
X4690714Y-5542333D01*
X4671667Y-5532810D01*
X4643095Y-5532810D01*
X4624048Y-5523286D01*
X4614524Y-5504238D01*
X4614524Y-5494714D01*
X4624048Y-5475667D01*
X4643095Y-5466143D01*
X4671667Y-5466143D01*
X4690714Y-5475667D01*
X4766905Y-5675667D02*
X4776429Y-5666143D01*
X4795476Y-5637571D01*
X4805000Y-5618524D01*
X4814524Y-5589952D01*
X4824048Y-5542333D01*
X4824048Y-5504238D01*
X4814524Y-5456619D01*
X4805000Y-5428048D01*
X4795476Y-5409000D01*
X4776429Y-5380429D01*
X4766905Y-5370905D01*
X5128810Y-5675667D02*
X5119286Y-5666143D01*
X5100238Y-5637571D01*
X5090714Y-5618524D01*
X5081190Y-5589952D01*
X5071667Y-5542333D01*
X5071667Y-5504238D01*
X5081190Y-5456619D01*
X5090714Y-5428048D01*
X5100238Y-5409000D01*
X5119286Y-5380429D01*
X5128810Y-5370905D01*
X5205000Y-5466143D02*
X5205000Y-5599476D01*
X5205000Y-5485190D02*
X5214524Y-5475667D01*
X5233571Y-5466143D01*
X5262143Y-5466143D01*
X5281190Y-5475667D01*
X5290714Y-5494714D01*
X5290714Y-5599476D01*
X5414524Y-5599476D02*
X5395476Y-5589952D01*
X5385952Y-5580429D01*
X5376429Y-5561381D01*
X5376429Y-5504238D01*
X5385952Y-5485190D01*
X5395476Y-5475667D01*
X5414524Y-5466143D01*
X5443095Y-5466143D01*
X5462143Y-5475667D01*
X5471667Y-5485190D01*
X5481190Y-5504238D01*
X5481190Y-5561381D01*
X5471667Y-5580429D01*
X5462143Y-5589952D01*
X5443095Y-5599476D01*
X5414524Y-5599476D01*
X5538333Y-5466143D02*
X5614524Y-5466143D01*
X5566905Y-5399476D02*
X5566905Y-5570905D01*
X5576429Y-5589952D01*
X5595476Y-5599476D01*
X5614524Y-5599476D01*
X5833571Y-5466143D02*
X5833571Y-5666143D01*
X5833571Y-5475667D02*
X5852619Y-5466143D01*
X5890714Y-5466143D01*
X5909762Y-5475667D01*
X5919286Y-5485190D01*
X5928809Y-5504238D01*
X5928809Y-5561381D01*
X5919286Y-5580429D01*
X5909762Y-5589952D01*
X5890714Y-5599476D01*
X5852619Y-5599476D01*
X5833571Y-5589952D01*
X6043095Y-5599476D02*
X6024048Y-5589952D01*
X6014524Y-5570905D01*
X6014524Y-5399476D01*
X6205000Y-5599476D02*
X6205000Y-5494714D01*
X6195476Y-5475667D01*
X6176428Y-5466143D01*
X6138333Y-5466143D01*
X6119286Y-5475667D01*
X6205000Y-5589952D02*
X6185952Y-5599476D01*
X6138333Y-5599476D01*
X6119286Y-5589952D01*
X6109762Y-5570905D01*
X6109762Y-5551857D01*
X6119286Y-5532810D01*
X6138333Y-5523286D01*
X6185952Y-5523286D01*
X6205000Y-5513762D01*
X6271667Y-5466143D02*
X6347857Y-5466143D01*
X6300238Y-5399476D02*
X6300238Y-5570905D01*
X6309762Y-5589952D01*
X6328809Y-5599476D01*
X6347857Y-5599476D01*
X6490714Y-5589952D02*
X6471667Y-5599476D01*
X6433571Y-5599476D01*
X6414524Y-5589952D01*
X6405000Y-5570905D01*
X6405000Y-5494714D01*
X6414524Y-5475667D01*
X6433571Y-5466143D01*
X6471667Y-5466143D01*
X6490714Y-5475667D01*
X6500238Y-5494714D01*
X6500238Y-5513762D01*
X6405000Y-5532810D01*
X6671667Y-5599476D02*
X6671667Y-5399476D01*
X6671667Y-5589952D02*
X6652619Y-5599476D01*
X6614524Y-5599476D01*
X6595476Y-5589952D01*
X6585952Y-5580429D01*
X6576428Y-5561381D01*
X6576428Y-5504238D01*
X6585952Y-5485190D01*
X6595476Y-5475667D01*
X6614524Y-5466143D01*
X6652619Y-5466143D01*
X6671667Y-5475667D01*
X6747857Y-5675667D02*
X6757381Y-5666143D01*
X6776428Y-5637571D01*
X6785952Y-5618524D01*
X6795476Y-5589952D01*
X6805000Y-5542333D01*
X6805000Y-5504238D01*
X6795476Y-5456619D01*
X6785952Y-5428048D01*
X6776428Y-5409000D01*
X6757381Y-5380429D01*
X6747857Y-5370905D01*
M02*
