G04 #@! TF.GenerationSoftware,KiCad,Pcbnew,(6.0.0-0)*
G04 #@! TF.CreationDate,2022-02-18T10:32:57-06:00*
G04 #@! TF.ProjectId,PhysarumV1,50687973-6172-4756-9d56-312e6b696361,rev?*
G04 #@! TF.SameCoordinates,Original*
G04 #@! TF.FileFunction,Soldermask,Top*
G04 #@! TF.FilePolarity,Negative*
%FSLAX46Y46*%
G04 Gerber Fmt 4.6, Leading zero omitted, Abs format (unit mm)*
G04 Created by KiCad (PCBNEW (6.0.0-0)) date 2022-02-18 10:32:57*
%MOMM*%
%LPD*%
G01*
G04 APERTURE LIST*
G04 Aperture macros list*
%AMRoundRect*
0 Rectangle with rounded corners*
0 $1 Rounding radius*
0 $2 $3 $4 $5 $6 $7 $8 $9 X,Y pos of 4 corners*
0 Add a 4 corners polygon primitive as box body*
4,1,4,$2,$3,$4,$5,$6,$7,$8,$9,$2,$3,0*
0 Add four circle primitives for the rounded corners*
1,1,$1+$1,$2,$3*
1,1,$1+$1,$4,$5*
1,1,$1+$1,$6,$7*
1,1,$1+$1,$8,$9*
0 Add four rect primitives between the rounded corners*
20,1,$1+$1,$2,$3,$4,$5,0*
20,1,$1+$1,$4,$5,$6,$7,0*
20,1,$1+$1,$6,$7,$8,$9,0*
20,1,$1+$1,$8,$9,$2,$3,0*%
%AMFreePoly0*
4,1,22,0.500000,-0.750000,0.000000,-0.750000,0.000000,-0.745033,-0.079941,-0.743568,-0.215256,-0.701293,-0.333266,-0.622738,-0.424486,-0.514219,-0.481581,-0.384460,-0.499164,-0.250000,-0.500000,-0.250000,-0.500000,0.250000,-0.499164,0.250000,-0.499963,0.256109,-0.478152,0.396186,-0.417904,0.524511,-0.324060,0.630769,-0.204165,0.706417,-0.067858,0.745374,0.000000,0.744959,0.000000,0.750000,
0.500000,0.750000,0.500000,-0.750000,0.500000,-0.750000,$1*%
%AMFreePoly1*
4,1,20,0.000000,0.744959,0.073905,0.744508,0.209726,0.703889,0.328688,0.626782,0.421226,0.519385,0.479903,0.390333,0.500000,0.250000,0.500000,-0.250000,0.499851,-0.262216,0.476331,-0.402017,0.414519,-0.529596,0.319384,-0.634700,0.198574,-0.708877,0.061801,-0.746166,0.000000,-0.745033,0.000000,-0.750000,-0.500000,-0.750000,-0.500000,0.750000,0.000000,0.750000,0.000000,0.744959,
0.000000,0.744959,$1*%
G04 Aperture macros list end*
%ADD10R,0.600000X3.300000*%
%ADD11C,1.000000*%
%ADD12RoundRect,0.250000X0.350000X0.450000X-0.350000X0.450000X-0.350000X-0.450000X0.350000X-0.450000X0*%
%ADD13R,1.700000X1.700000*%
%ADD14O,1.700000X1.700000*%
%ADD15R,1.600000X1.600000*%
%ADD16C,1.500000*%
%ADD17R,1.800000X2.500000*%
%ADD18RoundRect,0.250000X0.337500X0.475000X-0.337500X0.475000X-0.337500X-0.475000X0.337500X-0.475000X0*%
%ADD19R,1.700000X2.200000*%
%ADD20RoundRect,0.250000X-0.350000X-0.450000X0.350000X-0.450000X0.350000X0.450000X-0.350000X0.450000X0*%
%ADD21C,2.100000*%
%ADD22RoundRect,0.250000X-0.450000X0.350000X-0.450000X-0.350000X0.450000X-0.350000X0.450000X0.350000X0*%
%ADD23R,1.000000X1.500000*%
%ADD24FreePoly0,270.000000*%
%ADD25FreePoly1,270.000000*%
%ADD26R,0.254000X0.203200*%
%ADD27R,0.254000X0.558800*%
%ADD28R,0.500000X0.800000*%
%ADD29FreePoly0,90.000000*%
%ADD30FreePoly1,90.000000*%
%ADD31RoundRect,0.250000X-0.475000X0.337500X-0.475000X-0.337500X0.475000X-0.337500X0.475000X0.337500X0*%
%ADD32RoundRect,0.250000X0.450000X-0.350000X0.450000X0.350000X-0.450000X0.350000X-0.450000X-0.350000X0*%
%ADD33RoundRect,0.028800X-0.706200X-0.211200X0.706200X-0.211200X0.706200X0.211200X-0.706200X0.211200X0*%
%ADD34C,2.000000*%
G04 APERTURE END LIST*
D10*
X23660000Y-29900000D03*
X22160000Y-29900000D03*
D11*
X35830000Y-23495000D03*
D12*
X30845000Y-25400000D03*
X28845000Y-25400000D03*
D13*
X43180000Y-12705000D03*
D14*
X43180000Y-10165000D03*
D13*
X31750000Y-34925000D03*
D15*
X13810000Y-43380000D03*
D16*
X10160000Y-44630000D03*
X10160000Y-42030000D03*
D15*
X6460000Y-43380000D03*
D17*
X11910000Y-39880000D03*
X8410000Y-39880000D03*
D18*
X34290000Y-31750000D03*
X32215000Y-31750000D03*
D19*
X1902500Y-13440000D03*
X4442500Y-13440000D03*
X6982500Y-13440000D03*
X9522500Y-13440000D03*
X12062500Y-13440000D03*
X14602500Y-13440000D03*
X17142500Y-13440000D03*
D20*
X32020000Y-29210000D03*
X34020000Y-29210000D03*
D21*
X2540000Y-8890000D03*
D13*
X38735000Y-34925000D03*
D22*
X12065000Y-33925000D03*
X12065000Y-35925000D03*
D15*
X38575000Y-43380000D03*
D16*
X34925000Y-42030000D03*
D15*
X31225000Y-43380000D03*
D16*
X34925000Y-44630000D03*
D17*
X36675000Y-39880000D03*
X33175000Y-39880000D03*
D23*
X36195000Y-19685000D03*
X37495000Y-19685000D03*
D19*
X17147500Y-29950000D03*
X14607500Y-29950000D03*
X12067500Y-29950000D03*
X9527500Y-29950000D03*
X6987500Y-29950000D03*
X4447500Y-29950000D03*
X1907500Y-29950000D03*
D24*
X5715000Y-34260000D03*
D25*
X5715000Y-35560000D03*
D26*
X38481000Y-10619999D03*
X38481000Y-10970001D03*
D27*
X38989000Y-10795000D03*
D28*
X36545000Y-25435000D03*
X35645000Y-25435000D03*
X34745000Y-25435000D03*
X33845000Y-25435000D03*
X33845000Y-26635000D03*
X34745000Y-26635000D03*
X35645000Y-26635000D03*
X36545000Y-26635000D03*
D13*
X43180000Y-17780000D03*
D14*
X43180000Y-20320000D03*
X43180000Y-22860000D03*
X43180000Y-25400000D03*
X43180000Y-27940000D03*
D11*
X38370000Y-23495000D03*
D29*
X29210000Y-30510000D03*
D30*
X29210000Y-29210000D03*
D12*
X30845000Y-22860000D03*
X28845000Y-22860000D03*
D31*
X26035000Y-22457500D03*
X26035000Y-24532500D03*
D13*
X8890000Y-34925000D03*
D22*
X40005000Y-26575000D03*
X40005000Y-28575000D03*
D32*
X34925000Y-36290000D03*
X34925000Y-34290000D03*
D21*
X42545000Y-43180000D03*
D13*
X3175000Y-38735000D03*
X18425000Y-8255000D03*
D14*
X20965000Y-8255000D03*
X23505000Y-8255000D03*
X26045000Y-8255000D03*
D22*
X36830000Y-29845000D03*
X36830000Y-31845000D03*
D13*
X43180000Y-36815000D03*
D14*
X43180000Y-34275000D03*
X43180000Y-31735000D03*
D21*
X2540000Y-43180000D03*
D11*
X38100000Y-13970000D03*
D33*
X27060000Y-13630000D03*
X27060000Y-14280000D03*
X27060000Y-14930000D03*
X27060000Y-15580000D03*
X31360000Y-15580000D03*
X31360000Y-14930000D03*
X31360000Y-14280000D03*
X31360000Y-13630000D03*
D11*
X34925000Y-10795000D03*
D12*
X30480000Y-18415000D03*
X28480000Y-18415000D03*
D34*
X1905000Y-34925000D03*
D11*
X23495000Y-15240000D03*
D22*
X35560000Y-13970000D03*
X35560000Y-15970000D03*
D23*
X31130000Y-10795000D03*
X29830000Y-10795000D03*
M02*
