%FSLAX45Y45*%
G04 Gerber Fmt 4.5, Leading zero omitted, Abs format (unit mm)*
G04 Created by KiCad (PCBNEW (6.0.0-0)) date 2022-02-18 10:34:28*
%MOMM*%
%LPD*%
G01*
G04 APERTURE LIST*
%TA.AperFunction,Profile*%
%ADD10C,0.100000*%
%TD*%
%ADD11C,0.200000*%
%ADD12C,0.040000*%
%ADD13C,0.100000*%
G04 APERTURE END LIST*
D10*
X0Y-635000D02*
X4500000Y-635000D01*
X4500000Y-635000D02*
X4500000Y-4600000D01*
X4500000Y-4600000D02*
X0Y-4600000D01*
X0Y-4600000D02*
X0Y-635000D01*
D11*
D12*
X170750Y-2975000D02*
X210750Y-3015000D01*
X210750Y-2975000D02*
X170750Y-3015000D01*
X551500Y-3290950D02*
X591500Y-3330950D01*
X591500Y-3290950D02*
X551500Y-3330950D01*
X932750Y-2975000D02*
X972750Y-3015000D01*
X972750Y-2975000D02*
X932750Y-3015000D01*
X1567500Y-3409000D02*
X1607500Y-3449000D01*
X1607500Y-3409000D02*
X1567500Y-3449000D01*
X1590000Y-3814000D02*
X1630000Y-3854000D01*
X1630000Y-3814000D02*
X1590000Y-3854000D01*
X1694750Y-2975000D02*
X1734750Y-3015000D01*
X1734750Y-2975000D02*
X1694750Y-3015000D01*
X1758000Y-3345500D02*
X1798000Y-3385500D01*
X1798000Y-3345500D02*
X1758000Y-3385500D01*
X1821500Y-3218500D02*
X1861500Y-3258500D01*
X1861500Y-3218500D02*
X1821500Y-3258500D01*
X1948500Y-2139000D02*
X1988500Y-2179000D01*
X1988500Y-2139000D02*
X1948500Y-2179000D01*
X2056000Y-2642000D02*
X2096000Y-2682000D01*
X2096000Y-2642000D02*
X2056000Y-2682000D01*
X2112000Y-1470000D02*
X2152000Y-1510000D01*
X2152000Y-1470000D02*
X2112000Y-1510000D01*
X2201500Y-1250000D02*
X2241500Y-1290000D01*
X2241500Y-1250000D02*
X2201500Y-1290000D01*
X2258050Y-1035099D02*
X2298050Y-1075099D01*
X2298050Y-1035099D02*
X2258050Y-1075099D01*
X2329500Y-1694500D02*
X2369500Y-1734500D01*
X2369500Y-1694500D02*
X2329500Y-1734500D01*
X2456500Y-996000D02*
X2496500Y-1036000D01*
X2496500Y-996000D02*
X2456500Y-1036000D01*
X2520000Y-2075500D02*
X2560000Y-2115500D01*
X2560000Y-2075500D02*
X2520000Y-2115500D01*
X2688000Y-2648000D02*
X2728000Y-2688000D01*
X2728000Y-2648000D02*
X2688000Y-2688000D01*
X2864500Y-2520000D02*
X2904500Y-2560000D01*
X2904500Y-2520000D02*
X2864500Y-2560000D01*
X3064500Y-2266000D02*
X3104500Y-2306000D01*
X3104500Y-2266000D02*
X3064500Y-2306000D01*
X3091500Y-2520000D02*
X3131500Y-2560000D01*
X3131500Y-2520000D02*
X3091500Y-2560000D01*
X3155000Y-2710500D02*
X3195000Y-2750500D01*
X3195000Y-2710500D02*
X3155000Y-2750500D01*
X3155000Y-3472500D02*
X3195000Y-3512500D01*
X3195000Y-3472500D02*
X3155000Y-3512500D01*
X3250000Y-1740000D02*
X3290000Y-1780000D01*
X3290000Y-1740000D02*
X3250000Y-1780000D01*
X3345500Y-1250000D02*
X3385500Y-1290000D01*
X3385500Y-1250000D02*
X3345500Y-1290000D01*
X3345500Y-1948500D02*
X3385500Y-1988500D01*
X3385500Y-1948500D02*
X3345500Y-1988500D01*
X3409000Y-2901000D02*
X3449000Y-2941000D01*
X3449000Y-2901000D02*
X3409000Y-2941000D01*
X3409000Y-3146050D02*
X3449000Y-3186050D01*
X3449000Y-3146050D02*
X3409000Y-3186050D01*
X3536000Y-1377000D02*
X3576000Y-1417000D01*
X3576000Y-1377000D02*
X3536000Y-1417000D01*
X3663000Y-2964500D02*
X3703000Y-3004500D01*
X3703000Y-2964500D02*
X3663000Y-3004500D01*
X3689000Y-3747000D02*
X3729000Y-3787000D01*
X3729000Y-3747000D02*
X3689000Y-3787000D01*
X3781050Y-3282000D02*
X3821050Y-3322000D01*
X3821050Y-3282000D02*
X3781050Y-3322000D01*
D13*
X240500Y-3492500D02*
G75*
G03*
X240500Y-3492500I-50000J0D01*
G01*
X939000Y-3492500D02*
G75*
G03*
X939000Y-3492500I-50000J0D01*
G01*
X1892500Y-825500D02*
G75*
G03*
X1892500Y-825500I-50000J0D01*
G01*
X2146500Y-825500D02*
G75*
G03*
X2146500Y-825500I-50000J0D01*
G01*
X2400500Y-825500D02*
G75*
G03*
X2400500Y-825500I-50000J0D01*
G01*
X2654500Y-825500D02*
G75*
G03*
X2654500Y-825500I-50000J0D01*
G01*
X3923500Y-3492500D02*
G75*
G03*
X3923500Y-3492500I-50000J0D01*
G01*
X4368000Y-1016500D02*
G75*
G03*
X4368000Y-1016500I-50000J0D01*
G01*
X4368000Y-1270500D02*
G75*
G03*
X4368000Y-1270500I-50000J0D01*
G01*
X4368000Y-1778000D02*
G75*
G03*
X4368000Y-1778000I-50000J0D01*
G01*
X4368000Y-2032000D02*
G75*
G03*
X4368000Y-2032000I-50000J0D01*
G01*
X4368000Y-2286000D02*
G75*
G03*
X4368000Y-2286000I-50000J0D01*
G01*
X4368000Y-2540000D02*
G75*
G03*
X4368000Y-2540000I-50000J0D01*
G01*
X4368000Y-2794000D02*
G75*
G03*
X4368000Y-2794000I-50000J0D01*
G01*
X4368000Y-3173500D02*
G75*
G03*
X4368000Y-3173500I-50000J0D01*
G01*
X4368000Y-3427500D02*
G75*
G03*
X4368000Y-3427500I-50000J0D01*
G01*
X4368000Y-3681500D02*
G75*
G03*
X4368000Y-3681500I-50000J0D01*
G01*
D11*
X252619Y-4915476D02*
X252619Y-4715476D01*
X300238Y-4715476D01*
X328810Y-4725000D01*
X347857Y-4744048D01*
X357381Y-4763095D01*
X366905Y-4801190D01*
X366905Y-4829762D01*
X357381Y-4867857D01*
X347857Y-4886905D01*
X328810Y-4905952D01*
X300238Y-4915476D01*
X252619Y-4915476D01*
X452619Y-4915476D02*
X452619Y-4782143D01*
X452619Y-4820238D02*
X462143Y-4801190D01*
X471667Y-4791667D01*
X490714Y-4782143D01*
X509762Y-4782143D01*
X576429Y-4915476D02*
X576429Y-4782143D01*
X576429Y-4715476D02*
X566905Y-4725000D01*
X576429Y-4734524D01*
X585952Y-4725000D01*
X576429Y-4715476D01*
X576429Y-4734524D01*
X700238Y-4915476D02*
X681190Y-4905952D01*
X671667Y-4886905D01*
X671667Y-4715476D01*
X805000Y-4915476D02*
X785952Y-4905952D01*
X776428Y-4886905D01*
X776428Y-4715476D01*
X1033571Y-4915476D02*
X1033571Y-4715476D01*
X1100238Y-4858333D01*
X1166905Y-4715476D01*
X1166905Y-4915476D01*
X1347857Y-4915476D02*
X1347857Y-4810714D01*
X1338333Y-4791667D01*
X1319286Y-4782143D01*
X1281190Y-4782143D01*
X1262143Y-4791667D01*
X1347857Y-4905952D02*
X1328810Y-4915476D01*
X1281190Y-4915476D01*
X1262143Y-4905952D01*
X1252619Y-4886905D01*
X1252619Y-4867857D01*
X1262143Y-4848810D01*
X1281190Y-4839286D01*
X1328810Y-4839286D01*
X1347857Y-4829762D01*
X1443095Y-4782143D02*
X1443095Y-4982143D01*
X1443095Y-4791667D02*
X1462143Y-4782143D01*
X1500238Y-4782143D01*
X1519286Y-4791667D01*
X1528809Y-4801190D01*
X1538333Y-4820238D01*
X1538333Y-4877381D01*
X1528809Y-4896429D01*
X1519286Y-4905952D01*
X1500238Y-4915476D01*
X1462143Y-4915476D01*
X1443095Y-4905952D01*
X1624048Y-4896429D02*
X1633571Y-4905952D01*
X1624048Y-4915476D01*
X1614524Y-4905952D01*
X1624048Y-4896429D01*
X1624048Y-4915476D01*
X1624048Y-4791667D02*
X1633571Y-4801190D01*
X1624048Y-4810714D01*
X1614524Y-4801190D01*
X1624048Y-4791667D01*
X1624048Y-4810714D01*
D12*
X-45000Y-5225000D02*
X-5000Y-5265000D01*
X-5000Y-5225000D02*
X-45000Y-5265000D01*
D11*
X290714Y-5135476D02*
X309762Y-5135476D01*
X328810Y-5145000D01*
X338333Y-5154524D01*
X347857Y-5173571D01*
X357381Y-5211667D01*
X357381Y-5259286D01*
X347857Y-5297381D01*
X338333Y-5316429D01*
X328810Y-5325952D01*
X309762Y-5335476D01*
X290714Y-5335476D01*
X271667Y-5325952D01*
X262143Y-5316429D01*
X252619Y-5297381D01*
X243095Y-5259286D01*
X243095Y-5211667D01*
X252619Y-5173571D01*
X262143Y-5154524D01*
X271667Y-5145000D01*
X290714Y-5135476D01*
X443095Y-5316429D02*
X452619Y-5325952D01*
X443095Y-5335476D01*
X433571Y-5325952D01*
X443095Y-5316429D01*
X443095Y-5335476D01*
X624048Y-5202143D02*
X624048Y-5335476D01*
X576429Y-5125952D02*
X528810Y-5268810D01*
X652619Y-5268810D01*
X766905Y-5135476D02*
X785952Y-5135476D01*
X805000Y-5145000D01*
X814524Y-5154524D01*
X824048Y-5173571D01*
X833571Y-5211667D01*
X833571Y-5259286D01*
X824048Y-5297381D01*
X814524Y-5316429D01*
X805000Y-5325952D01*
X785952Y-5335476D01*
X766905Y-5335476D01*
X747857Y-5325952D01*
X738333Y-5316429D01*
X728809Y-5297381D01*
X719286Y-5259286D01*
X719286Y-5211667D01*
X728809Y-5173571D01*
X738333Y-5154524D01*
X747857Y-5145000D01*
X766905Y-5135476D01*
X957381Y-5135476D02*
X976428Y-5135476D01*
X995476Y-5145000D01*
X1005000Y-5154524D01*
X1014524Y-5173571D01*
X1024048Y-5211667D01*
X1024048Y-5259286D01*
X1014524Y-5297381D01*
X1005000Y-5316429D01*
X995476Y-5325952D01*
X976428Y-5335476D01*
X957381Y-5335476D01*
X938333Y-5325952D01*
X928809Y-5316429D01*
X919286Y-5297381D01*
X909762Y-5259286D01*
X909762Y-5211667D01*
X919286Y-5173571D01*
X928809Y-5154524D01*
X938333Y-5145000D01*
X957381Y-5135476D01*
X1109762Y-5335476D02*
X1109762Y-5202143D01*
X1109762Y-5221190D02*
X1119286Y-5211667D01*
X1138333Y-5202143D01*
X1166905Y-5202143D01*
X1185952Y-5211667D01*
X1195476Y-5230714D01*
X1195476Y-5335476D01*
X1195476Y-5230714D02*
X1205000Y-5211667D01*
X1224048Y-5202143D01*
X1252619Y-5202143D01*
X1271667Y-5211667D01*
X1281190Y-5230714D01*
X1281190Y-5335476D01*
X1376429Y-5335476D02*
X1376429Y-5202143D01*
X1376429Y-5221190D02*
X1385952Y-5211667D01*
X1405000Y-5202143D01*
X1433571Y-5202143D01*
X1452619Y-5211667D01*
X1462143Y-5230714D01*
X1462143Y-5335476D01*
X1462143Y-5230714D02*
X1471667Y-5211667D01*
X1490714Y-5202143D01*
X1519286Y-5202143D01*
X1538333Y-5211667D01*
X1547857Y-5230714D01*
X1547857Y-5335476D01*
X1938333Y-5125952D02*
X1766905Y-5383095D01*
X2195476Y-5135476D02*
X2214524Y-5135476D01*
X2233571Y-5145000D01*
X2243095Y-5154524D01*
X2252619Y-5173571D01*
X2262143Y-5211667D01*
X2262143Y-5259286D01*
X2252619Y-5297381D01*
X2243095Y-5316429D01*
X2233571Y-5325952D01*
X2214524Y-5335476D01*
X2195476Y-5335476D01*
X2176429Y-5325952D01*
X2166905Y-5316429D01*
X2157381Y-5297381D01*
X2147857Y-5259286D01*
X2147857Y-5211667D01*
X2157381Y-5173571D01*
X2166905Y-5154524D01*
X2176429Y-5145000D01*
X2195476Y-5135476D01*
X2347857Y-5316429D02*
X2357381Y-5325952D01*
X2347857Y-5335476D01*
X2338333Y-5325952D01*
X2347857Y-5316429D01*
X2347857Y-5335476D01*
X2481190Y-5135476D02*
X2500238Y-5135476D01*
X2519286Y-5145000D01*
X2528810Y-5154524D01*
X2538333Y-5173571D01*
X2547857Y-5211667D01*
X2547857Y-5259286D01*
X2538333Y-5297381D01*
X2528810Y-5316429D01*
X2519286Y-5325952D01*
X2500238Y-5335476D01*
X2481190Y-5335476D01*
X2462143Y-5325952D01*
X2452619Y-5316429D01*
X2443095Y-5297381D01*
X2433571Y-5259286D01*
X2433571Y-5211667D01*
X2443095Y-5173571D01*
X2452619Y-5154524D01*
X2462143Y-5145000D01*
X2481190Y-5135476D01*
X2738333Y-5335476D02*
X2624048Y-5335476D01*
X2681190Y-5335476D02*
X2681190Y-5135476D01*
X2662143Y-5164048D01*
X2643095Y-5183095D01*
X2624048Y-5192619D01*
X2919286Y-5135476D02*
X2824048Y-5135476D01*
X2814524Y-5230714D01*
X2824048Y-5221190D01*
X2843095Y-5211667D01*
X2890714Y-5211667D01*
X2909762Y-5221190D01*
X2919286Y-5230714D01*
X2928809Y-5249762D01*
X2928809Y-5297381D01*
X2919286Y-5316429D01*
X2909762Y-5325952D01*
X2890714Y-5335476D01*
X2843095Y-5335476D01*
X2824048Y-5325952D01*
X2814524Y-5316429D01*
X2995476Y-5135476D02*
X3128809Y-5135476D01*
X3043095Y-5335476D01*
X3195476Y-5135476D02*
X3195476Y-5173571D01*
X3271667Y-5135476D02*
X3271667Y-5173571D01*
X3566905Y-5411667D02*
X3557381Y-5402143D01*
X3538333Y-5373571D01*
X3528809Y-5354524D01*
X3519286Y-5325952D01*
X3509762Y-5278333D01*
X3509762Y-5240238D01*
X3519286Y-5192619D01*
X3528809Y-5164048D01*
X3538333Y-5145000D01*
X3557381Y-5116429D01*
X3566905Y-5106905D01*
X3624048Y-5135476D02*
X3747857Y-5135476D01*
X3681190Y-5211667D01*
X3709762Y-5211667D01*
X3728809Y-5221190D01*
X3738333Y-5230714D01*
X3747857Y-5249762D01*
X3747857Y-5297381D01*
X3738333Y-5316429D01*
X3728809Y-5325952D01*
X3709762Y-5335476D01*
X3652619Y-5335476D01*
X3633571Y-5325952D01*
X3624048Y-5316429D01*
X3938333Y-5335476D02*
X3824048Y-5335476D01*
X3881190Y-5335476D02*
X3881190Y-5135476D01*
X3862143Y-5164048D01*
X3843095Y-5183095D01*
X3824048Y-5192619D01*
X4176428Y-5335476D02*
X4176428Y-5135476D01*
X4262143Y-5335476D02*
X4262143Y-5230714D01*
X4252619Y-5211667D01*
X4233571Y-5202143D01*
X4205000Y-5202143D01*
X4185952Y-5211667D01*
X4176428Y-5221190D01*
X4385952Y-5335476D02*
X4366905Y-5325952D01*
X4357381Y-5316429D01*
X4347857Y-5297381D01*
X4347857Y-5240238D01*
X4357381Y-5221190D01*
X4366905Y-5211667D01*
X4385952Y-5202143D01*
X4414524Y-5202143D01*
X4433571Y-5211667D01*
X4443095Y-5221190D01*
X4452619Y-5240238D01*
X4452619Y-5297381D01*
X4443095Y-5316429D01*
X4433571Y-5325952D01*
X4414524Y-5335476D01*
X4385952Y-5335476D01*
X4566905Y-5335476D02*
X4547857Y-5325952D01*
X4538333Y-5306905D01*
X4538333Y-5135476D01*
X4719286Y-5325952D02*
X4700238Y-5335476D01*
X4662143Y-5335476D01*
X4643095Y-5325952D01*
X4633571Y-5306905D01*
X4633571Y-5230714D01*
X4643095Y-5211667D01*
X4662143Y-5202143D01*
X4700238Y-5202143D01*
X4719286Y-5211667D01*
X4728810Y-5230714D01*
X4728810Y-5249762D01*
X4633571Y-5268810D01*
X4805000Y-5325952D02*
X4824048Y-5335476D01*
X4862143Y-5335476D01*
X4881190Y-5325952D01*
X4890714Y-5306905D01*
X4890714Y-5297381D01*
X4881190Y-5278333D01*
X4862143Y-5268810D01*
X4833571Y-5268810D01*
X4814524Y-5259286D01*
X4805000Y-5240238D01*
X4805000Y-5230714D01*
X4814524Y-5211667D01*
X4833571Y-5202143D01*
X4862143Y-5202143D01*
X4881190Y-5211667D01*
X4957381Y-5411667D02*
X4966905Y-5402143D01*
X4985952Y-5373571D01*
X4995476Y-5354524D01*
X5005000Y-5325952D01*
X5014524Y-5278333D01*
X5014524Y-5240238D01*
X5005000Y-5192619D01*
X4995476Y-5164048D01*
X4985952Y-5145000D01*
X4966905Y-5116429D01*
X4957381Y-5106905D01*
D13*
X-5000Y-5509000D02*
G75*
G03*
X-5000Y-5509000I-50000J0D01*
G01*
D11*
X357381Y-5599476D02*
X243095Y-5599476D01*
X300238Y-5599476D02*
X300238Y-5399476D01*
X281190Y-5428048D01*
X262143Y-5447095D01*
X243095Y-5456619D01*
X443095Y-5580429D02*
X452619Y-5589952D01*
X443095Y-5599476D01*
X433571Y-5589952D01*
X443095Y-5580429D01*
X443095Y-5599476D01*
X576429Y-5399476D02*
X595476Y-5399476D01*
X614524Y-5409000D01*
X624048Y-5418524D01*
X633571Y-5437571D01*
X643095Y-5475667D01*
X643095Y-5523286D01*
X633571Y-5561381D01*
X624048Y-5580429D01*
X614524Y-5589952D01*
X595476Y-5599476D01*
X576429Y-5599476D01*
X557381Y-5589952D01*
X547857Y-5580429D01*
X538333Y-5561381D01*
X528810Y-5523286D01*
X528810Y-5475667D01*
X538333Y-5437571D01*
X547857Y-5418524D01*
X557381Y-5409000D01*
X576429Y-5399476D01*
X766905Y-5399476D02*
X785952Y-5399476D01*
X805000Y-5409000D01*
X814524Y-5418524D01*
X824048Y-5437571D01*
X833571Y-5475667D01*
X833571Y-5523286D01*
X824048Y-5561381D01*
X814524Y-5580429D01*
X805000Y-5589952D01*
X785952Y-5599476D01*
X766905Y-5599476D01*
X747857Y-5589952D01*
X738333Y-5580429D01*
X728809Y-5561381D01*
X719286Y-5523286D01*
X719286Y-5475667D01*
X728809Y-5437571D01*
X738333Y-5418524D01*
X747857Y-5409000D01*
X766905Y-5399476D01*
X957381Y-5399476D02*
X976428Y-5399476D01*
X995476Y-5409000D01*
X1005000Y-5418524D01*
X1014524Y-5437571D01*
X1024048Y-5475667D01*
X1024048Y-5523286D01*
X1014524Y-5561381D01*
X1005000Y-5580429D01*
X995476Y-5589952D01*
X976428Y-5599476D01*
X957381Y-5599476D01*
X938333Y-5589952D01*
X928809Y-5580429D01*
X919286Y-5561381D01*
X909762Y-5523286D01*
X909762Y-5475667D01*
X919286Y-5437571D01*
X928809Y-5418524D01*
X938333Y-5409000D01*
X957381Y-5399476D01*
X1109762Y-5599476D02*
X1109762Y-5466143D01*
X1109762Y-5485190D02*
X1119286Y-5475667D01*
X1138333Y-5466143D01*
X1166905Y-5466143D01*
X1185952Y-5475667D01*
X1195476Y-5494714D01*
X1195476Y-5599476D01*
X1195476Y-5494714D02*
X1205000Y-5475667D01*
X1224048Y-5466143D01*
X1252619Y-5466143D01*
X1271667Y-5475667D01*
X1281190Y-5494714D01*
X1281190Y-5599476D01*
X1376429Y-5599476D02*
X1376429Y-5466143D01*
X1376429Y-5485190D02*
X1385952Y-5475667D01*
X1405000Y-5466143D01*
X1433571Y-5466143D01*
X1452619Y-5475667D01*
X1462143Y-5494714D01*
X1462143Y-5599476D01*
X1462143Y-5494714D02*
X1471667Y-5475667D01*
X1490714Y-5466143D01*
X1519286Y-5466143D01*
X1538333Y-5475667D01*
X1547857Y-5494714D01*
X1547857Y-5599476D01*
X1938333Y-5389952D02*
X1766905Y-5647095D01*
X2195476Y-5399476D02*
X2214524Y-5399476D01*
X2233571Y-5409000D01*
X2243095Y-5418524D01*
X2252619Y-5437571D01*
X2262143Y-5475667D01*
X2262143Y-5523286D01*
X2252619Y-5561381D01*
X2243095Y-5580429D01*
X2233571Y-5589952D01*
X2214524Y-5599476D01*
X2195476Y-5599476D01*
X2176429Y-5589952D01*
X2166905Y-5580429D01*
X2157381Y-5561381D01*
X2147857Y-5523286D01*
X2147857Y-5475667D01*
X2157381Y-5437571D01*
X2166905Y-5418524D01*
X2176429Y-5409000D01*
X2195476Y-5399476D01*
X2347857Y-5580429D02*
X2357381Y-5589952D01*
X2347857Y-5599476D01*
X2338333Y-5589952D01*
X2347857Y-5580429D01*
X2347857Y-5599476D01*
X2481190Y-5399476D02*
X2500238Y-5399476D01*
X2519286Y-5409000D01*
X2528810Y-5418524D01*
X2538333Y-5437571D01*
X2547857Y-5475667D01*
X2547857Y-5523286D01*
X2538333Y-5561381D01*
X2528810Y-5580429D01*
X2519286Y-5589952D01*
X2500238Y-5599476D01*
X2481190Y-5599476D01*
X2462143Y-5589952D01*
X2452619Y-5580429D01*
X2443095Y-5561381D01*
X2433571Y-5523286D01*
X2433571Y-5475667D01*
X2443095Y-5437571D01*
X2452619Y-5418524D01*
X2462143Y-5409000D01*
X2481190Y-5399476D01*
X2614524Y-5399476D02*
X2738333Y-5399476D01*
X2671667Y-5475667D01*
X2700238Y-5475667D01*
X2719286Y-5485190D01*
X2728810Y-5494714D01*
X2738333Y-5513762D01*
X2738333Y-5561381D01*
X2728810Y-5580429D01*
X2719286Y-5589952D01*
X2700238Y-5599476D01*
X2643095Y-5599476D01*
X2624048Y-5589952D01*
X2614524Y-5580429D01*
X2833571Y-5599476D02*
X2871667Y-5599476D01*
X2890714Y-5589952D01*
X2900238Y-5580429D01*
X2919286Y-5551857D01*
X2928809Y-5513762D01*
X2928809Y-5437571D01*
X2919286Y-5418524D01*
X2909762Y-5409000D01*
X2890714Y-5399476D01*
X2852619Y-5399476D01*
X2833571Y-5409000D01*
X2824048Y-5418524D01*
X2814524Y-5437571D01*
X2814524Y-5485190D01*
X2824048Y-5504238D01*
X2833571Y-5513762D01*
X2852619Y-5523286D01*
X2890714Y-5523286D01*
X2909762Y-5513762D01*
X2919286Y-5504238D01*
X2928809Y-5485190D01*
X3100238Y-5466143D02*
X3100238Y-5599476D01*
X3052619Y-5389952D02*
X3005000Y-5532810D01*
X3128809Y-5532810D01*
X3195476Y-5399476D02*
X3195476Y-5437571D01*
X3271667Y-5399476D02*
X3271667Y-5437571D01*
X3566905Y-5675667D02*
X3557381Y-5666143D01*
X3538333Y-5637571D01*
X3528809Y-5618524D01*
X3519286Y-5589952D01*
X3509762Y-5542333D01*
X3509762Y-5504238D01*
X3519286Y-5456619D01*
X3528809Y-5428048D01*
X3538333Y-5409000D01*
X3557381Y-5380429D01*
X3566905Y-5370905D01*
X3747857Y-5599476D02*
X3633571Y-5599476D01*
X3690714Y-5599476D02*
X3690714Y-5399476D01*
X3671667Y-5428048D01*
X3652619Y-5447095D01*
X3633571Y-5456619D01*
X3814524Y-5399476D02*
X3947857Y-5399476D01*
X3862143Y-5599476D01*
X4176428Y-5599476D02*
X4176428Y-5399476D01*
X4262143Y-5599476D02*
X4262143Y-5494714D01*
X4252619Y-5475667D01*
X4233571Y-5466143D01*
X4205000Y-5466143D01*
X4185952Y-5475667D01*
X4176428Y-5485190D01*
X4385952Y-5599476D02*
X4366905Y-5589952D01*
X4357381Y-5580429D01*
X4347857Y-5561381D01*
X4347857Y-5504238D01*
X4357381Y-5485190D01*
X4366905Y-5475667D01*
X4385952Y-5466143D01*
X4414524Y-5466143D01*
X4433571Y-5475667D01*
X4443095Y-5485190D01*
X4452619Y-5504238D01*
X4452619Y-5561381D01*
X4443095Y-5580429D01*
X4433571Y-5589952D01*
X4414524Y-5599476D01*
X4385952Y-5599476D01*
X4566905Y-5599476D02*
X4547857Y-5589952D01*
X4538333Y-5570905D01*
X4538333Y-5399476D01*
X4719286Y-5589952D02*
X4700238Y-5599476D01*
X4662143Y-5599476D01*
X4643095Y-5589952D01*
X4633571Y-5570905D01*
X4633571Y-5494714D01*
X4643095Y-5475667D01*
X4662143Y-5466143D01*
X4700238Y-5466143D01*
X4719286Y-5475667D01*
X4728810Y-5494714D01*
X4728810Y-5513762D01*
X4633571Y-5532810D01*
X4805000Y-5589952D02*
X4824048Y-5599476D01*
X4862143Y-5599476D01*
X4881190Y-5589952D01*
X4890714Y-5570905D01*
X4890714Y-5561381D01*
X4881190Y-5542333D01*
X4862143Y-5532810D01*
X4833571Y-5532810D01*
X4814524Y-5523286D01*
X4805000Y-5504238D01*
X4805000Y-5494714D01*
X4814524Y-5475667D01*
X4833571Y-5466143D01*
X4862143Y-5466143D01*
X4881190Y-5475667D01*
X4957381Y-5675667D02*
X4966905Y-5666143D01*
X4985952Y-5637571D01*
X4995476Y-5618524D01*
X5005000Y-5589952D01*
X5014524Y-5542333D01*
X5014524Y-5504238D01*
X5005000Y-5456619D01*
X4995476Y-5428048D01*
X4985952Y-5409000D01*
X4966905Y-5380429D01*
X4957381Y-5370905D01*
M02*
