G04 #@! TF.GenerationSoftware,KiCad,Pcbnew,(6.0.0-0)*
G04 #@! TF.CreationDate,2022-02-18T10:32:57-06:00*
G04 #@! TF.ProjectId,PhysarumV1,50687973-6172-4756-9d56-312e6b696361,rev?*
G04 #@! TF.SameCoordinates,Original*
G04 #@! TF.FileFunction,Copper,L2,Bot*
G04 #@! TF.FilePolarity,Positive*
%FSLAX46Y46*%
G04 Gerber Fmt 4.6, Leading zero omitted, Abs format (unit mm)*
G04 Created by KiCad (PCBNEW (6.0.0-0)) date 2022-02-18 10:32:57*
%MOMM*%
%LPD*%
G01*
G04 APERTURE LIST*
G04 #@! TA.AperFunction,SMDPad,CuDef*
%ADD10R,1.700000X2.200000*%
G04 #@! TD*
G04 #@! TA.AperFunction,ComponentPad*
%ADD11R,1.700000X1.700000*%
G04 #@! TD*
G04 #@! TA.AperFunction,ComponentPad*
%ADD12O,1.700000X1.700000*%
G04 #@! TD*
G04 #@! TA.AperFunction,WasherPad*
%ADD13C,1.500000*%
G04 #@! TD*
G04 #@! TA.AperFunction,ComponentPad*
%ADD14C,2.000000*%
G04 #@! TD*
G04 #@! TA.AperFunction,ViaPad*
%ADD15C,0.800000*%
G04 #@! TD*
G04 #@! TA.AperFunction,Conductor*
%ADD16C,0.250000*%
G04 #@! TD*
G04 APERTURE END LIST*
D10*
X27295000Y-12700000D03*
X24755000Y-12700000D03*
X22215000Y-12700000D03*
X19675000Y-12700000D03*
D11*
X43180000Y-12705000D03*
D12*
X43180000Y-10165000D03*
D13*
X10160000Y-44630000D03*
X10160000Y-42030000D03*
D11*
X38735000Y-34925000D03*
D13*
X34925000Y-42030000D03*
X34925000Y-44630000D03*
D11*
X43180000Y-17780000D03*
D12*
X43180000Y-20320000D03*
X43180000Y-22860000D03*
X43180000Y-25400000D03*
X43180000Y-27940000D03*
D11*
X8890000Y-34925000D03*
X18425000Y-8255000D03*
D12*
X20965000Y-8255000D03*
X23505000Y-8255000D03*
X26045000Y-8255000D03*
D11*
X43180000Y-36815000D03*
D12*
X43180000Y-34275000D03*
X43180000Y-31735000D03*
D14*
X1905000Y-34925000D03*
D10*
X27295000Y-28575000D03*
X24755000Y-28575000D03*
X22215000Y-28575000D03*
X19675000Y-28575000D03*
D15*
X21320000Y-14900000D03*
X20760000Y-26620000D03*
X27080000Y-26680000D03*
X5715000Y-33109500D03*
X34290000Y-31660500D03*
X33655000Y-12700000D03*
X32700000Y-17600000D03*
X31750000Y-27305000D03*
X34290000Y-29210000D03*
X28845000Y-25400000D03*
X37090000Y-37670000D03*
X38010500Y-33020000D03*
X22215000Y-12700000D03*
X18415000Y-32385000D03*
X31115000Y-25400000D03*
X19685000Y-21590000D03*
X30845000Y-22860000D03*
X17780000Y-33655000D03*
X22780500Y-10550989D03*
X24765000Y-10160000D03*
X17147500Y-29950000D03*
X9527500Y-29950000D03*
X33655000Y-19685000D03*
X15875000Y-34290000D03*
X31750000Y-34925000D03*
X16100000Y-38340000D03*
X23495000Y-17145000D03*
X1907500Y-29950000D03*
X35560000Y-13970000D03*
X36830000Y-29845000D03*
X25400000Y-20955000D03*
D16*
X22555000Y-14900000D02*
X24755000Y-12700000D01*
X21320000Y-14900000D02*
X22555000Y-14900000D01*
X32700000Y-17600000D02*
X31520489Y-16420489D01*
X20779511Y-16420489D02*
X20730000Y-16470000D01*
X31520489Y-16420489D02*
X20779511Y-16420489D01*
X20730000Y-16470000D02*
X19675000Y-15415000D01*
X19675000Y-15415000D02*
X19675000Y-12700000D01*
X27295000Y-12700000D02*
X28565000Y-13970000D01*
X28565000Y-13970000D02*
X35560000Y-13970000D01*
X19675000Y-12700000D02*
X19675000Y-9505000D01*
X19675000Y-9505000D02*
X18425000Y-8255000D01*
X26045000Y-8255000D02*
X26045000Y-9995489D01*
X26045000Y-9995489D02*
X24755000Y-11285489D01*
X24755000Y-11285489D02*
X24755000Y-12700000D01*
X20820000Y-26680000D02*
X20760000Y-26620000D01*
X27080000Y-26680000D02*
X20820000Y-26680000D01*
X5715000Y-33109500D02*
X16665886Y-33109500D01*
X18114886Y-31660500D02*
X34290000Y-31660500D01*
X16665886Y-33109500D02*
X18114886Y-31660500D01*
X33550000Y-18450000D02*
X32700000Y-17600000D01*
X33655000Y-12700000D02*
X39250000Y-12700000D01*
X40500000Y-18450000D02*
X33550000Y-18450000D01*
X39250000Y-12700000D02*
X40500000Y-13950000D01*
X40500000Y-13950000D02*
X40500000Y-18450000D01*
X31750000Y-27305000D02*
X33655000Y-29210000D01*
X33655000Y-29210000D02*
X34290000Y-29210000D01*
X39909511Y-36099511D02*
X39909511Y-31899897D01*
X33870386Y-21620000D02*
X40290000Y-21620000D01*
X39909511Y-36099511D02*
X40625000Y-36815000D01*
X28845000Y-25400000D02*
X30090386Y-25400000D01*
X40290000Y-21620000D02*
X40290000Y-20670000D01*
X30814897Y-26124511D02*
X30090386Y-25400000D01*
X40290000Y-20670000D02*
X43180000Y-17780000D01*
X37090000Y-37670000D02*
X38339022Y-37670000D01*
X30090386Y-25400000D02*
X33870386Y-21620000D01*
X39909511Y-31899897D02*
X34134125Y-26124511D01*
X38339022Y-37670000D02*
X39909511Y-36099511D01*
X40625000Y-36815000D02*
X43180000Y-36815000D01*
X34134125Y-26124511D02*
X30814897Y-26124511D01*
X37375500Y-32385000D02*
X38010500Y-33020000D01*
X31115000Y-25400000D02*
X38100000Y-25400000D01*
X18415000Y-32385000D02*
X37375500Y-32385000D01*
X38100000Y-25400000D02*
X43180000Y-20320000D01*
X28215489Y-20230489D02*
X21044511Y-20230489D01*
X30845000Y-22860000D02*
X28215489Y-20230489D01*
X21044511Y-20230489D02*
X19685000Y-21590000D01*
X43949511Y-38394511D02*
X44354511Y-37989511D01*
X17780000Y-33655000D02*
X32050386Y-33655000D01*
X36789897Y-38394511D02*
X43949511Y-38394511D01*
X44354511Y-37989511D02*
X44354511Y-35449511D01*
X44354511Y-35449511D02*
X43180000Y-34275000D01*
X32050386Y-33655000D02*
X36789897Y-38394511D01*
X24374011Y-10550989D02*
X24765000Y-10160000D01*
X22780500Y-10550989D02*
X24374011Y-10550989D01*
X1905000Y-34925000D02*
X4445000Y-32385000D01*
X17147500Y-30477500D02*
X17147500Y-29950000D01*
X15240000Y-32385000D02*
X17147500Y-30477500D01*
X4445000Y-32385000D02*
X15240000Y-32385000D01*
X33655000Y-19685000D02*
X19792500Y-19685000D01*
X19792500Y-19685000D02*
X9527500Y-29950000D01*
X16100000Y-38340000D02*
X16100000Y-35335000D01*
X16100000Y-35335000D02*
X16510000Y-34925000D01*
X16510000Y-34925000D02*
X31750000Y-34925000D01*
X15875000Y-34290000D02*
X16510000Y-34925000D01*
X14712500Y-17145000D02*
X1907500Y-29950000D01*
X23495000Y-17145000D02*
X14712500Y-17145000D01*
X32354897Y-29934511D02*
X36740489Y-29934511D01*
X25400000Y-20955000D02*
X25400000Y-22979614D01*
X25400000Y-22979614D02*
X32354897Y-29934511D01*
X36740489Y-29934511D02*
X36830000Y-29845000D01*
X38735000Y-31750000D02*
X38735000Y-34925000D01*
X36830000Y-29845000D02*
X38735000Y-31750000D01*
M02*
