M48
; DRILL file {KiCad (6.0.0-0)} date Friday, February 18, 2022 at 10:34:26 AM
; FORMAT={-:-/ absolute / metric / decimal}
; #@! TF.CreationDate,2022-02-18T10:34:26-06:00
; #@! TF.GenerationSoftware,Kicad,Pcbnew,(6.0.0-0)
; #@! TF.FileFunction,Plated,1,2,PTH
FMAT,2
METRIC
; #@! TA.AperFunction,Plated,PTH,ViaDrill
T1C0.400
; #@! TA.AperFunction,Plated,PTH,ComponentDrill
T2C1.000
%
G90
G05
T1
X1.907Y-29.95
X5.715Y-33.109
X9.527Y-29.95
X15.875Y-34.29
X16.1Y-38.34
X17.148Y-29.95
X17.78Y-33.655
X18.415Y-32.385
X19.685Y-21.59
X20.76Y-26.62
X21.32Y-14.9
X22.215Y-12.7
X22.78Y-10.551
X23.495Y-17.145
X24.765Y-10.16
X25.4Y-20.955
X27.08Y-26.68
X28.845Y-25.4
X30.845Y-22.86
X31.115Y-25.4
X31.75Y-27.305
X31.75Y-34.925
X32.7Y-17.6
X33.655Y-12.7
X33.655Y-19.685
X34.29Y-29.21
X34.29Y-31.66
X35.56Y-13.97
X36.83Y-29.845
X37.09Y-37.67
X38.011Y-33.02
T2
X1.905Y-34.925
X8.89Y-34.925
X18.425Y-8.255
X20.965Y-8.255
X23.505Y-8.255
X26.045Y-8.255
X38.735Y-34.925
X43.18Y-10.165
X43.18Y-12.705
X43.18Y-17.78
X43.18Y-20.32
X43.18Y-22.86
X43.18Y-25.4
X43.18Y-27.94
X43.18Y-31.735
X43.18Y-34.275
X43.18Y-36.815
T0
M30
