G04 #@! TF.GenerationSoftware,KiCad,Pcbnew,(6.0.0-0)*
G04 #@! TF.CreationDate,2022-02-18T10:32:57-06:00*
G04 #@! TF.ProjectId,PhysarumV1,50687973-6172-4756-9d56-312e6b696361,rev?*
G04 #@! TF.SameCoordinates,Original*
G04 #@! TF.FileFunction,Copper,L1,Top*
G04 #@! TF.FilePolarity,Positive*
%FSLAX46Y46*%
G04 Gerber Fmt 4.6, Leading zero omitted, Abs format (unit mm)*
G04 Created by KiCad (PCBNEW (6.0.0-0)) date 2022-02-18 10:32:57*
%MOMM*%
%LPD*%
G01*
G04 APERTURE LIST*
G04 Aperture macros list*
%AMRoundRect*
0 Rectangle with rounded corners*
0 $1 Rounding radius*
0 $2 $3 $4 $5 $6 $7 $8 $9 X,Y pos of 4 corners*
0 Add a 4 corners polygon primitive as box body*
4,1,4,$2,$3,$4,$5,$6,$7,$8,$9,$2,$3,0*
0 Add four circle primitives for the rounded corners*
1,1,$1+$1,$2,$3*
1,1,$1+$1,$4,$5*
1,1,$1+$1,$6,$7*
1,1,$1+$1,$8,$9*
0 Add four rect primitives between the rounded corners*
20,1,$1+$1,$2,$3,$4,$5,0*
20,1,$1+$1,$4,$5,$6,$7,0*
20,1,$1+$1,$6,$7,$8,$9,0*
20,1,$1+$1,$8,$9,$2,$3,0*%
%AMFreePoly0*
4,1,22,0.500000,-0.750000,0.000000,-0.750000,0.000000,-0.745033,-0.079941,-0.743568,-0.215256,-0.701293,-0.333266,-0.622738,-0.424486,-0.514219,-0.481581,-0.384460,-0.499164,-0.250000,-0.500000,-0.250000,-0.500000,0.250000,-0.499164,0.250000,-0.499963,0.256109,-0.478152,0.396186,-0.417904,0.524511,-0.324060,0.630769,-0.204165,0.706417,-0.067858,0.745374,0.000000,0.744959,0.000000,0.750000,
0.500000,0.750000,0.500000,-0.750000,0.500000,-0.750000,$1*%
%AMFreePoly1*
4,1,20,0.000000,0.744959,0.073905,0.744508,0.209726,0.703889,0.328688,0.626782,0.421226,0.519385,0.479903,0.390333,0.500000,0.250000,0.500000,-0.250000,0.499851,-0.262216,0.476331,-0.402017,0.414519,-0.529596,0.319384,-0.634700,0.198574,-0.708877,0.061801,-0.746166,0.000000,-0.745033,0.000000,-0.750000,-0.500000,-0.750000,-0.500000,0.750000,0.000000,0.750000,0.000000,0.744959,
0.000000,0.744959,$1*%
G04 Aperture macros list end*
G04 #@! TA.AperFunction,SMDPad,CuDef*
%ADD10R,0.600000X3.300000*%
G04 #@! TD*
G04 #@! TA.AperFunction,SMDPad,CuDef*
%ADD11C,1.000000*%
G04 #@! TD*
G04 #@! TA.AperFunction,SMDPad,CuDef*
%ADD12RoundRect,0.250000X0.350000X0.450000X-0.350000X0.450000X-0.350000X-0.450000X0.350000X-0.450000X0*%
G04 #@! TD*
G04 #@! TA.AperFunction,ComponentPad*
%ADD13R,1.700000X1.700000*%
G04 #@! TD*
G04 #@! TA.AperFunction,ComponentPad*
%ADD14O,1.700000X1.700000*%
G04 #@! TD*
G04 #@! TA.AperFunction,SMDPad,CuDef*
%ADD15R,1.700000X1.700000*%
G04 #@! TD*
G04 #@! TA.AperFunction,SMDPad,CuDef*
%ADD16R,1.600000X1.600000*%
G04 #@! TD*
G04 #@! TA.AperFunction,WasherPad*
%ADD17C,1.500000*%
G04 #@! TD*
G04 #@! TA.AperFunction,SMDPad,CuDef*
%ADD18R,1.800000X2.500000*%
G04 #@! TD*
G04 #@! TA.AperFunction,SMDPad,CuDef*
%ADD19RoundRect,0.250000X0.337500X0.475000X-0.337500X0.475000X-0.337500X-0.475000X0.337500X-0.475000X0*%
G04 #@! TD*
G04 #@! TA.AperFunction,SMDPad,CuDef*
%ADD20R,1.700000X2.200000*%
G04 #@! TD*
G04 #@! TA.AperFunction,SMDPad,CuDef*
%ADD21RoundRect,0.250000X-0.350000X-0.450000X0.350000X-0.450000X0.350000X0.450000X-0.350000X0.450000X0*%
G04 #@! TD*
G04 #@! TA.AperFunction,SMDPad,CuDef*
%ADD22RoundRect,0.250000X-0.450000X0.350000X-0.450000X-0.350000X0.450000X-0.350000X0.450000X0.350000X0*%
G04 #@! TD*
G04 #@! TA.AperFunction,SMDPad,CuDef*
%ADD23R,1.000000X1.500000*%
G04 #@! TD*
G04 #@! TA.AperFunction,SMDPad,CuDef*
%ADD24FreePoly0,270.000000*%
G04 #@! TD*
G04 #@! TA.AperFunction,SMDPad,CuDef*
%ADD25FreePoly1,270.000000*%
G04 #@! TD*
G04 #@! TA.AperFunction,SMDPad,CuDef*
%ADD26R,0.254000X0.203200*%
G04 #@! TD*
G04 #@! TA.AperFunction,SMDPad,CuDef*
%ADD27R,0.254000X0.558800*%
G04 #@! TD*
G04 #@! TA.AperFunction,SMDPad,CuDef*
%ADD28R,0.500000X0.800000*%
G04 #@! TD*
G04 #@! TA.AperFunction,SMDPad,CuDef*
%ADD29FreePoly0,90.000000*%
G04 #@! TD*
G04 #@! TA.AperFunction,SMDPad,CuDef*
%ADD30FreePoly1,90.000000*%
G04 #@! TD*
G04 #@! TA.AperFunction,SMDPad,CuDef*
%ADD31RoundRect,0.250000X-0.475000X0.337500X-0.475000X-0.337500X0.475000X-0.337500X0.475000X0.337500X0*%
G04 #@! TD*
G04 #@! TA.AperFunction,SMDPad,CuDef*
%ADD32RoundRect,0.250000X0.450000X-0.350000X0.450000X0.350000X-0.450000X0.350000X-0.450000X-0.350000X0*%
G04 #@! TD*
G04 #@! TA.AperFunction,SMDPad,CuDef*
%ADD33RoundRect,0.028800X-0.706200X-0.211200X0.706200X-0.211200X0.706200X0.211200X-0.706200X0.211200X0*%
G04 #@! TD*
G04 #@! TA.AperFunction,ComponentPad*
%ADD34C,2.000000*%
G04 #@! TD*
G04 #@! TA.AperFunction,ViaPad*
%ADD35C,0.800000*%
G04 #@! TD*
G04 #@! TA.AperFunction,Conductor*
%ADD36C,0.250000*%
G04 #@! TD*
G04 APERTURE END LIST*
G36*
X6015000Y-35160000D02*
G01*
X5415000Y-35160000D01*
X5415000Y-34660000D01*
X6015000Y-34660000D01*
X6015000Y-35160000D01*
G37*
G36*
X29510000Y-30110000D02*
G01*
X28910000Y-30110000D01*
X28910000Y-29610000D01*
X29510000Y-29610000D01*
X29510000Y-30110000D01*
G37*
D10*
X23660000Y-29900000D03*
X22160000Y-29900000D03*
D11*
X35830000Y-23495000D03*
D12*
X30845000Y-25400000D03*
X28845000Y-25400000D03*
D13*
X43180000Y-12705000D03*
D14*
X43180000Y-10165000D03*
D15*
X31750000Y-34925000D03*
D16*
X13810000Y-43380000D03*
D17*
X10160000Y-44630000D03*
X10160000Y-42030000D03*
D16*
X6460000Y-43380000D03*
D18*
X11910000Y-39880000D03*
X8410000Y-39880000D03*
D19*
X34290000Y-31750000D03*
X32215000Y-31750000D03*
D20*
X1902500Y-13440000D03*
X4442500Y-13440000D03*
X6982500Y-13440000D03*
X9522500Y-13440000D03*
X12062500Y-13440000D03*
X14602500Y-13440000D03*
X17142500Y-13440000D03*
D21*
X32020000Y-29210000D03*
X34020000Y-29210000D03*
D13*
X38735000Y-34925000D03*
D22*
X12065000Y-33925000D03*
X12065000Y-35925000D03*
D16*
X38575000Y-43380000D03*
D17*
X34925000Y-42030000D03*
D16*
X31225000Y-43380000D03*
D17*
X34925000Y-44630000D03*
D18*
X36675000Y-39880000D03*
X33175000Y-39880000D03*
D23*
X36195000Y-19685000D03*
X37495000Y-19685000D03*
D20*
X17147500Y-29950000D03*
X14607500Y-29950000D03*
X12067500Y-29950000D03*
X9527500Y-29950000D03*
X6987500Y-29950000D03*
X4447500Y-29950000D03*
X1907500Y-29950000D03*
D24*
X5715000Y-34260000D03*
D25*
X5715000Y-35560000D03*
D26*
X38481000Y-10619999D03*
X38481000Y-10970001D03*
D27*
X38989000Y-10795000D03*
D28*
X36545000Y-25435000D03*
X35645000Y-25435000D03*
X34745000Y-25435000D03*
X33845000Y-25435000D03*
X33845000Y-26635000D03*
X34745000Y-26635000D03*
X35645000Y-26635000D03*
X36545000Y-26635000D03*
D13*
X43180000Y-17780000D03*
D14*
X43180000Y-20320000D03*
X43180000Y-22860000D03*
X43180000Y-25400000D03*
X43180000Y-27940000D03*
D11*
X38370000Y-23495000D03*
D29*
X29210000Y-30510000D03*
D30*
X29210000Y-29210000D03*
D12*
X30845000Y-22860000D03*
X28845000Y-22860000D03*
D31*
X26035000Y-22457500D03*
X26035000Y-24532500D03*
D13*
X8890000Y-34925000D03*
D22*
X40005000Y-26575000D03*
X40005000Y-28575000D03*
D32*
X34925000Y-36290000D03*
X34925000Y-34290000D03*
D15*
X3175000Y-38735000D03*
D13*
X18425000Y-8255000D03*
D14*
X20965000Y-8255000D03*
X23505000Y-8255000D03*
X26045000Y-8255000D03*
D22*
X36830000Y-29845000D03*
X36830000Y-31845000D03*
D13*
X43180000Y-36815000D03*
D14*
X43180000Y-34275000D03*
X43180000Y-31735000D03*
D11*
X38100000Y-13970000D03*
D33*
X27060000Y-13630000D03*
X27060000Y-14280000D03*
X27060000Y-14930000D03*
X27060000Y-15580000D03*
X31360000Y-15580000D03*
X31360000Y-14930000D03*
X31360000Y-14280000D03*
X31360000Y-13630000D03*
D11*
X34925000Y-10795000D03*
D12*
X30480000Y-18415000D03*
X28480000Y-18415000D03*
D34*
X1905000Y-34925000D03*
D11*
X23495000Y-15240000D03*
D22*
X35560000Y-13970000D03*
X35560000Y-15970000D03*
D23*
X31130000Y-10795000D03*
X29830000Y-10795000D03*
D35*
X21320000Y-14900000D03*
X20760000Y-26620000D03*
X27080000Y-26680000D03*
X5715000Y-33109500D03*
X34290000Y-31660500D03*
X33655000Y-12700000D03*
X32700000Y-17600000D03*
X31750000Y-27305000D03*
X34290000Y-29210000D03*
X28845000Y-25400000D03*
X37090000Y-37670000D03*
X38010500Y-33020000D03*
X22215000Y-12700000D03*
X18415000Y-32385000D03*
X31115000Y-25400000D03*
X19685000Y-21590000D03*
X30845000Y-22860000D03*
X17780000Y-33655000D03*
X22780500Y-10550989D03*
X24765000Y-10160000D03*
X17147500Y-29950000D03*
X9527500Y-29950000D03*
X33655000Y-19685000D03*
X15875000Y-34290000D03*
X31750000Y-34925000D03*
X16100000Y-38340000D03*
X23495000Y-17145000D03*
X1907500Y-29950000D03*
X35560000Y-13970000D03*
X36830000Y-29845000D03*
X25400000Y-20955000D03*
D36*
X19685000Y-16535000D02*
X21320000Y-14900000D01*
X19685000Y-21590000D02*
X19685000Y-16535000D01*
X27060000Y-14930000D02*
X25710000Y-14930000D01*
X25400000Y-15240000D02*
X25400000Y-20955000D01*
X25710000Y-14930000D02*
X25400000Y-15240000D01*
X20760000Y-26620000D02*
X20760000Y-28500000D01*
X20760000Y-28500000D02*
X22160000Y-29900000D01*
X27080000Y-28788940D02*
X27080000Y-26680000D01*
X28801060Y-30510000D02*
X27080000Y-28788940D01*
X29210000Y-30510000D02*
X28801060Y-30510000D01*
X23030000Y-33720000D02*
X22160000Y-33720000D01*
X23660000Y-33090000D02*
X23660000Y-29900000D01*
X30245000Y-33720000D02*
X23030000Y-33720000D01*
X23030000Y-33720000D02*
X23660000Y-33090000D01*
X26035000Y-22457500D02*
X23660000Y-24832500D01*
X23660000Y-24832500D02*
X23660000Y-29450480D01*
X5715000Y-34260000D02*
X5715000Y-33109500D01*
X35645000Y-26635000D02*
X35645000Y-30395000D01*
X35645000Y-30395000D02*
X34290000Y-31750000D01*
X27060000Y-15580000D02*
X27060000Y-16995000D01*
X28480000Y-20012500D02*
X26035000Y-22457500D01*
X43180000Y-27940000D02*
X43180000Y-31735000D01*
X33095480Y-27384520D02*
X33095480Y-30869520D01*
X32385000Y-31750000D02*
X34925000Y-34290000D01*
X19685000Y-36195000D02*
X12335000Y-36195000D01*
X40640000Y-27940000D02*
X43180000Y-27940000D01*
X36830000Y-31845000D02*
X36830000Y-32385000D01*
X33845000Y-26635000D02*
X33095480Y-27384520D01*
X40005000Y-28575000D02*
X40640000Y-27940000D01*
X40005000Y-28575000D02*
X36830000Y-31750000D01*
X22160000Y-33720000D02*
X19685000Y-36195000D01*
X27060000Y-16995000D02*
X28480000Y-18415000D01*
X33095480Y-30869520D02*
X32215000Y-31750000D01*
X34290000Y-12065000D02*
X37465000Y-12065000D01*
X32095000Y-16995000D02*
X27060000Y-16995000D01*
X38481000Y-11049000D02*
X38481000Y-11046110D01*
X12335000Y-36195000D02*
X12065000Y-35925000D01*
X36830000Y-31750000D02*
X36830000Y-31845000D01*
X4442500Y-11778478D02*
X4442500Y-13440000D01*
X18425000Y-8255000D02*
X7965978Y-8255000D01*
X37465000Y-12065000D02*
X38481000Y-11049000D01*
X28480000Y-18415000D02*
X28480000Y-20012500D01*
X33655000Y-12700000D02*
X34290000Y-12065000D01*
X32215000Y-31750000D02*
X30245000Y-33720000D01*
X32700000Y-17600000D02*
X32095000Y-16995000D01*
X7965978Y-8255000D02*
X4442500Y-11778478D01*
X32215000Y-31750000D02*
X32385000Y-31750000D01*
X36830000Y-32385000D02*
X34925000Y-34290000D01*
X26035000Y-24532500D02*
X28807500Y-27305000D01*
X34745000Y-28485000D02*
X34745000Y-26635000D01*
X34020000Y-29210000D02*
X34745000Y-28485000D01*
X28807500Y-27305000D02*
X31750000Y-27305000D01*
X43180000Y-12705000D02*
X43180000Y-17780000D01*
X14174511Y-37615489D02*
X11910000Y-39880000D01*
X3175000Y-38100000D02*
X3175000Y-38735000D01*
X8407011Y-12015489D02*
X16558793Y-12015489D01*
X31360000Y-13630000D02*
X30795480Y-13065480D01*
X37090000Y-37670000D02*
X37090000Y-39465000D01*
X23954520Y-10374134D02*
X23954520Y-9466490D01*
X5715000Y-35560000D02*
X3175000Y-38100000D01*
X6982500Y-13440000D02*
X8407011Y-12015489D01*
X31360000Y-13630000D02*
X34287507Y-13630000D01*
X16558793Y-12015489D02*
X18414282Y-10160000D01*
X34287507Y-13630000D02*
X35212507Y-12705000D01*
X30795480Y-13065480D02*
X26645866Y-13065480D01*
X24679511Y-7768501D02*
X23991499Y-7080489D01*
X33815978Y-43320000D02*
X28111467Y-37615489D01*
X36675000Y-39880000D02*
X36675000Y-42345000D01*
X35212507Y-12705000D02*
X43180000Y-12705000D01*
X37090000Y-39465000D02*
X36675000Y-39880000D01*
X28111467Y-37615489D02*
X14174511Y-37615489D01*
X18414282Y-10160000D02*
X20320000Y-10160000D01*
X26645866Y-13065480D02*
X23954520Y-10374134D01*
X24679511Y-8741499D02*
X24679511Y-7768501D01*
X8255000Y-35560000D02*
X5715000Y-35560000D01*
X35700000Y-43320000D02*
X33815978Y-43320000D01*
X23991499Y-7080489D02*
X22139511Y-7080489D01*
X8890000Y-36860000D02*
X8890000Y-34925000D01*
X20965000Y-9515000D02*
X20320000Y-10160000D01*
X20965000Y-8255000D02*
X20965000Y-9515000D01*
X8890000Y-34925000D02*
X8255000Y-35560000D01*
X11910000Y-39880000D02*
X8890000Y-36860000D01*
X23954520Y-9466490D02*
X24679511Y-8741499D01*
X28845000Y-22860000D02*
X28845000Y-25400000D01*
X22139511Y-7080489D02*
X20965000Y-8255000D01*
X36675000Y-42345000D02*
X35700000Y-43320000D01*
X30845000Y-25400000D02*
X31115000Y-25400000D01*
X34745000Y-23413964D02*
X34745000Y-25435000D01*
X43666499Y-26574511D02*
X42693501Y-26574511D01*
X23505000Y-11410000D02*
X22215000Y-12700000D01*
X44354511Y-25886499D02*
X43666499Y-26574511D01*
X17042500Y-32385000D02*
X18415000Y-32385000D01*
X23505000Y-8255000D02*
X23505000Y-11410000D01*
X44874980Y-32595020D02*
X44874980Y-26406968D01*
X35488475Y-22670489D02*
X34745000Y-23413964D01*
X22215000Y-12700000D02*
X22215000Y-22342500D01*
X44354511Y-21494511D02*
X44354511Y-25886499D01*
X44450000Y-33020000D02*
X44874980Y-32595020D01*
X44874980Y-26406968D02*
X44354511Y-25886499D01*
X22215000Y-22342500D02*
X14607500Y-29950000D01*
X42693501Y-26574511D02*
X38789479Y-22670489D01*
X38789479Y-22670489D02*
X35488475Y-22670489D01*
X38010500Y-33020000D02*
X44450000Y-33020000D01*
X14607500Y-29950000D02*
X17042500Y-32385000D01*
X43180000Y-20320000D02*
X44354511Y-21494511D01*
X33704897Y-18610489D02*
X32930489Y-19384897D01*
X32930489Y-24520489D02*
X33845000Y-25435000D01*
X12067500Y-29207500D02*
X19685000Y-21590000D01*
X43180000Y-22860000D02*
X38930489Y-18610489D01*
X31270000Y-22860000D02*
X33845000Y-25435000D01*
X32930489Y-19384897D02*
X32930489Y-24520489D01*
X12067500Y-29950000D02*
X12067500Y-29207500D01*
X30845000Y-22860000D02*
X31270000Y-22860000D01*
X38930489Y-18610489D02*
X33704897Y-18610489D01*
X17676782Y-33655000D02*
X17780000Y-33655000D01*
X10892989Y-22430489D02*
X10892989Y-31374511D01*
X1902500Y-13440000D02*
X10892989Y-22430489D01*
X10892989Y-31374511D02*
X15396293Y-31374511D01*
X15396293Y-31374511D02*
X17676782Y-33655000D01*
X37495000Y-19715000D02*
X43180000Y-25400000D01*
X37495000Y-19685000D02*
X37495000Y-19715000D01*
X25400000Y-10795000D02*
X29830000Y-10795000D01*
X17142500Y-13440000D02*
X17142500Y-12067500D01*
X17142500Y-12067500D02*
X18415000Y-10795000D01*
X18415000Y-10795000D02*
X22536489Y-10795000D01*
X22536489Y-10795000D02*
X22780500Y-10550989D01*
X24765000Y-10160000D02*
X25400000Y-10795000D01*
X36195000Y-19685000D02*
X33655000Y-19685000D01*
X33560000Y-34925000D02*
X34925000Y-36290000D01*
X9190000Y-43340000D02*
X8410000Y-42560000D01*
X10037980Y-33000480D02*
X6987500Y-29950000D01*
X8410000Y-42560000D02*
X8410000Y-39880000D01*
X15875000Y-34290000D02*
X14585480Y-33000480D01*
X16100000Y-38340000D02*
X11100000Y-43340000D01*
X31750000Y-34925000D02*
X33560000Y-34925000D01*
X14585480Y-33000480D02*
X10037980Y-33000480D01*
X11100000Y-43340000D02*
X9190000Y-43340000D01*
X30144520Y-36849520D02*
X11377027Y-36849520D01*
X4447500Y-29950000D02*
X8247989Y-33750489D01*
X33175000Y-39880000D02*
X30144520Y-36849520D01*
X11890489Y-33750489D02*
X12065000Y-33925000D01*
X11040480Y-36512973D02*
X11040480Y-34949520D01*
X11040480Y-34949520D02*
X12065000Y-33925000D01*
X11377027Y-36849520D02*
X11040480Y-36512973D01*
X8247989Y-33750489D02*
X11890489Y-33750489D01*
X27060000Y-14280000D02*
X24455000Y-14280000D01*
X24455000Y-14280000D02*
X23495000Y-15240000D01*
X27060000Y-13630000D02*
X27060000Y-14280000D01*
X29292931Y-14280000D02*
X30592931Y-15580000D01*
X23495000Y-15240000D02*
X23495000Y-17145000D01*
X27060000Y-14280000D02*
X29292931Y-14280000D01*
X30592931Y-15580000D02*
X31360000Y-15580000D01*
X35250000Y-14280000D02*
X35560000Y-13970000D01*
X31360000Y-14280000D02*
X35250000Y-14280000D01*
X35560000Y-13970000D02*
X38100000Y-13970000D01*
X34925000Y-10795000D02*
X35176110Y-10543890D01*
X31130000Y-10795000D02*
X34925000Y-10795000D01*
X35176110Y-10543890D02*
X38481000Y-10543890D01*
X29210000Y-29210000D02*
X32020000Y-29210000D01*
X39619000Y-10165000D02*
X38989000Y-10795000D01*
X43180000Y-10165000D02*
X39619000Y-10165000D01*
X36545000Y-26635000D02*
X39945000Y-26635000D01*
X39945000Y-26635000D02*
X40005000Y-26575000D01*
X33115000Y-18415000D02*
X35560000Y-15970000D01*
X30480000Y-18415000D02*
X33115000Y-18415000D01*
X34520000Y-14930000D02*
X35560000Y-15970000D01*
X31360000Y-14930000D02*
X34520000Y-14930000D01*
X38370000Y-23495000D02*
X36545000Y-25320000D01*
X36545000Y-25320000D02*
X36545000Y-25435000D01*
X35830000Y-23495000D02*
X35830000Y-25250000D01*
X35830000Y-25250000D02*
X35645000Y-25435000D01*
M02*
