G04 #@! TF.GenerationSoftware,KiCad,Pcbnew,(6.0.0-0)*
G04 #@! TF.CreationDate,2022-02-18T10:32:57-06:00*
G04 #@! TF.ProjectId,PhysarumV1,50687973-6172-4756-9d56-312e6b696361,rev?*
G04 #@! TF.SameCoordinates,Original*
G04 #@! TF.FileFunction,Legend,Bot*
G04 #@! TF.FilePolarity,Positive*
%FSLAX46Y46*%
G04 Gerber Fmt 4.6, Leading zero omitted, Abs format (unit mm)*
G04 Created by KiCad (PCBNEW (6.0.0-0)) date 2022-02-18 10:32:57*
%MOMM*%
%LPD*%
G01*
G04 APERTURE LIST*
%ADD10C,0.120000*%
%ADD11R,1.700000X2.200000*%
%ADD12R,1.700000X1.700000*%
%ADD13O,1.700000X1.700000*%
%ADD14C,1.500000*%
%ADD15C,2.100000*%
%ADD16C,2.000000*%
G04 APERTURE END LIST*
D10*
X26025000Y-14030000D02*
X26025000Y-11370000D01*
X26025000Y-14030000D02*
X18345000Y-14030000D01*
X18345000Y-14030000D02*
X18345000Y-11370000D01*
X28625000Y-14030000D02*
X28625000Y-12700000D01*
X27295000Y-14030000D02*
X28625000Y-14030000D01*
X26025000Y-11370000D02*
X18345000Y-11370000D01*
X18345000Y-29905000D02*
X18345000Y-27245000D01*
X26025000Y-29905000D02*
X26025000Y-27245000D01*
X27295000Y-29905000D02*
X28625000Y-29905000D01*
X26025000Y-27245000D02*
X18345000Y-27245000D01*
X26025000Y-29905000D02*
X18345000Y-29905000D01*
X28625000Y-29905000D02*
X28625000Y-28575000D01*
%LPC*%
D11*
X27295000Y-12700000D03*
X24755000Y-12700000D03*
X22215000Y-12700000D03*
X19675000Y-12700000D03*
D12*
X43180000Y-12705000D03*
D13*
X43180000Y-10165000D03*
D14*
X10160000Y-44630000D03*
X10160000Y-42030000D03*
D15*
X2540000Y-8890000D03*
D12*
X38735000Y-34925000D03*
D14*
X34925000Y-42030000D03*
X34925000Y-44630000D03*
D12*
X43180000Y-17780000D03*
D13*
X43180000Y-20320000D03*
X43180000Y-22860000D03*
X43180000Y-25400000D03*
X43180000Y-27940000D03*
D12*
X8890000Y-34925000D03*
D15*
X42545000Y-43180000D03*
D12*
X18425000Y-8255000D03*
D13*
X20965000Y-8255000D03*
X23505000Y-8255000D03*
X26045000Y-8255000D03*
D12*
X43180000Y-36815000D03*
D13*
X43180000Y-34275000D03*
X43180000Y-31735000D03*
D15*
X2540000Y-43180000D03*
D16*
X1905000Y-34925000D03*
D11*
X27295000Y-28575000D03*
X24755000Y-28575000D03*
X22215000Y-28575000D03*
X19675000Y-28575000D03*
M02*
